<svg xmlns="http://www.w3.org/2000/svg" viewBox="0 0 28 42"><defs><style>.cls-1{fill:#cd5d12;}.cls-2{fill:#fa8132;}.cls-3{fill:#e86a17;}.cls-4{fill-opacity:0.1;}</style></defs><title>Ресурс 127</title><g id="Слой_2" data-name="Слой 2"><g id="Слой_1-2" data-name="Слой 1"><path class="cls-1" d="M26,14.1l-.15-.8-.4-.6-10-10.1A2,2,0,0,0,14,2a1.82,1.82,0,0,0-1.4.6L2.6,12.7l-.4.55L2,14.1V35a2,2,0,0,0,.6,1.45A1.88,1.88,0,0,0,4,37H24a1.89,1.89,0,0,0,2-2V14.1M0,35.1v-21a3.8,3.8,0,0,1,1.15-2.8l10-10.1a4,4,0,0,1,5.7,0l10,10.1A3.8,3.8,0,0,1,28,14.1v21a4,4,0,0,1-1.15,2.75A4,4,0,0,1,24,39H4a3.8,3.8,0,0,1-2.8-1.15H1.15A4,4,0,0,1,0,35.1"/><path class="cls-2" d="M26,14.1V35a1.89,1.89,0,0,1-2,2H4a1.88,1.88,0,0,1-1.4-.55A2,2,0,0,1,2,35V14.1l.2-.85.4-.55,10-10.1A1.82,1.82,0,0,1,14,2a2,2,0,0,1,1.45.6l10,10.1.4.6.15.8M14,4,4,14.1V35H24V14.1L14,4"/><path class="cls-3" d="M14,4,24,14.1V35H4V14.1L14,4"/><path class="cls-4" d="M28,35.1V38a3.93,3.93,0,0,1-4,4H4a3.8,3.8,0,0,1-2.8-1.15H1.15A4,4,0,0,1,0,38V35.1a4,4,0,0,0,1.15,2.75H1.2A3.8,3.8,0,0,0,4,39H24a4,4,0,0,0,2.85-1.15A4,4,0,0,0,28,35.1"/></g></g></svg>