<svg xmlns="http://www.w3.org/2000/svg" viewBox="0 0 190 49"><defs><style>.cls-1{fill:#d5d5d5;}.cls-2{fill:#fc0;}.cls-3{fill:#eee;}.cls-4{fill:#aaa;}</style></defs><title>Ресурс 8</title><g id="Слой_2" data-name="Слой 2"><g id="Слой_1-2" data-name="Слой 1"><path class="cls-1" d="M184,2H6Q2.51,2,2.1,5.05L2,6V39q0,4,4,4H184q4,0,4-4V6l-.05-1Q187.5,2,184,2M0,39.25V6Q0,0,6,0H184q6,0,6,6V39.25Q189.85,45,184,45H6Q.15,45,0,39.25"/><path class="cls-2" d="M184,2q3.5,0,3.95,3.05L188,6V39q0,4-4,4H6q-4,0-4-4V6l.1-1Q2.51,2,6,2H184m1,4V5.55l-.05,0c-.13-.33-.45-.5-.95-.5H6c-.5,0-.82.17-1,.5v0L5,6V39a.88.88,0,0,0,1,1H184a.88.88,0,0,0,1-1V6"/><path class="cls-3" d="M185,6V39a.88.88,0,0,1-1,1H6a.88.88,0,0,1-1-1V6l0-.45v0c.13-.33.45-.5,1-.5H184c.5,0,.82.17.95.5l.05,0V6"/><path class="cls-4" d="M190,39.25V43q0,6-6,6H6q-6,0-6-6V39.25Q.15,45,6,45H184q5.85,0,6-5.75"/></g></g></svg>