<svg xmlns="http://www.w3.org/2000/svg" viewBox="0 0 8 10"><defs><style>.cls-1{fill:#fff;}.cls-2{fill:#999;}</style></defs><title>Ресурс 42</title><g id="Слой_2" data-name="Слой 2"><g id="Слой_1-2" data-name="Слой 1"><path class="cls-1" d="M8,4.5V6A3.89,3.89,0,0,1,6.8,8.85,3.8,3.8,0,0,1,4,10,3.93,3.93,0,0,1,0,6l.05-.5L0,5l.05-.5a4,4,0,0,0,1.1,2.35A4,4,0,0,0,4,8,3.8,3.8,0,0,0,6.8,6.85,4.07,4.07,0,0,0,8,4.5"/><path class="cls-2" d="M8,4.5A4.07,4.07,0,0,1,6.8,6.85,3.8,3.8,0,0,1,4,8,4,4,0,0,1,1.15,6.85,4,4,0,0,1,.05,4.5L0,4A3.8,3.8,0,0,1,1.15,1.2,3.89,3.89,0,0,1,4,0,3.74,3.74,0,0,1,6.8,1.2,3.74,3.74,0,0,1,8,4v.5"/></g></g></svg>