<svg xmlns="http://www.w3.org/2000/svg" viewBox="0 0 190 45"><defs><style>.cls-1{fill:#fa8132;}.cls-2{fill:#cd5d12;}.cls-3{fill:#e86a17;}</style></defs><title>Ресурс 26</title><g id="Слой_2" data-name="Слой 2"><g id="Слой_1-2" data-name="Слой 1"><path class="cls-1" d="M184,2c1.9,0,3.13.67,3.7,2l.25,1L188,6V39L188,40q-.45,3-3.95,3H6q-3.49,0-3.9-3L2,39V6l.1-1,.3-1C2.9,2.67,4.1,2,6,2H184m1.85,2.8A2,2,0,0,0,184,4H6a1.79,1.79,0,0,0-1.7.7l0,.1-.15.6,0,.1L4,6V39l0,.6,0,.15C4.27,40.58,4.9,41,6,41H184q1.6,0,1.95-1.2L186,39V6L186,5.3l.05.1-.15-.6"/><path class="cls-2" d="M184,2H6c-1.9,0-3.1.67-3.6,2l-.3,1L2,6V39l.1,1q.4,3,3.9,3H184q3.5,0,3.95-3l.05-1V6l-.05-1-.25-1c-.57-1.33-1.8-2-3.7-2m6,4V39.25q-.1,5.2-4.95,5.7L184,45H6L5,45c-3-.3-4.67-2-4.9-5.1l0-.6V6L.2,4Q1.1,0,6,0H184q4.91,0,5.8,4l.2,2"/><path class="cls-3" d="M185.85,4.8l.15.6L186,5.3,186,6V39l-.05.8Q185.61,41,184,41H6c-1.1,0-1.73-.42-1.9-1.25l0-.15L4,39V6l0-.5,0-.1.15-.6,0-.1A1.79,1.79,0,0,1,6,4H184a2,2,0,0,1,1.85.8"/></g></g></svg>