<svg xmlns="http://www.w3.org/2000/svg" viewBox="0 0 190 49"><defs><style>.cls-1{fill:#fff;}.cls-2{fill:#ececec;}.cls-3{fill:#c6c6c6;}</style></defs><title>Ресурс 45</title><g id="Слой_2" data-name="Слой 2"><g id="Слой_1-2" data-name="Слой 1"><path class="cls-1" d="M188,8q0-6-6-6H8Q2,2,2,8V41.25l0,.6C2.28,45,4,46.73,7.1,47H182.5c3.57-.17,5.4-2.08,5.5-5.75V8M4,9.65l.1-.6Q4.51,6,8,6H182q3.5,0,3.95,3.05l.05.55V41.25L186,42q-.45,3-3.95,3H8q-3.49,0-3.9-3L4,41.15V9.65M190,8V41.3q-.19,7.39-7.4,7.7H7q-6.4-.55-6.9-7l0-.75V8Q0,0,8,0H182q8,0,8,8"/><path class="cls-2" d="M186,9.6,186,9.05Q185.5,6,182,6H8Q4.51,6,4.1,9.05l-.1.6V8l.1-1Q4.51,4,8,4H182q3.5,0,3.95,3.05L186,8V9.6"/><path class="cls-3" d="M186,9.6V8l-.05-1Q185.5,4,182,4H8Q4.51,4,4.1,7.05L4,8V41.15l.1.85q.41,3,3.9,3H182q3.5,0,3.95-3l.05-.75V9.6M188,8V41.25c-.1,3.67-1.93,5.58-5.5,5.75H7.1c-3.13-.27-4.82-2-5-5.15l0-.6V8Q2,2,8,2H182q6,0,6,6"/></g></g></svg>