<svg xmlns="http://www.w3.org/2000/svg" viewBox="0 0 190 45"><defs><style>.cls-1{fill:#88e060;}.cls-2{fill:#5fb13a;}.cls-3{fill:#73cd4b;}</style></defs><title>Ресурс 17</title><g id="Слой_2" data-name="Слой 2"><g id="Слой_1-2" data-name="Слой 1"><path class="cls-1" d="M188,5.05,188,6V39L188,40q-.45,3-3.95,3H6q-3.49,0-3.9-3L2,39V6l.1-1Q2.51,2,6,2H184q3.5,0,3.95,3.05M184,40a.88.88,0,0,0,1-1V22.5H5V39a.88.88,0,0,0,1,1H184"/><path class="cls-2" d="M188,5.05Q187.5,2,184,2H6Q2.51,2,2.1,5.05L2,6V39l.1,1q.4,3,3.9,3H184q3.5,0,3.95-3l.05-1V6l-.05-1M190,39.25Q189.85,45,184,45H5.1C2,44.73.28,43,.05,39.85l0-.6V6Q0,0,6,0H184q6,0,6,6V39.25"/><path class="cls-3" d="M184,40H6a.88.88,0,0,1-1-1V22.5H185V39a.88.88,0,0,1-1,1"/></g></g></svg>