<svg xmlns="http://www.w3.org/2000/svg" xmlns:xlink="http://www.w3.org/1999/xlink" viewBox="0 0 49 45"><defs><style>.cls-1{fill:#fa8132;}.cls-2{fill:#cd5d12;}.cls-3{fill:url(#Безымянный_градиент_17);}</style><linearGradient id="Безымянный_градиент_17" x1="3667.55" y1="46085.89" x2="5305.95" y2="46085.89" gradientTransform="matrix(0, 0.03, 0.02, 0, -1016.26, -89.78)" gradientUnits="userSpaceOnUse"><stop offset="0" stop-color="#fa8132"/><stop offset="1" stop-color="#e86a17"/></linearGradient></defs><title>Ресурс 109</title><g id="Слой_2" data-name="Слой 2"><g id="Слой_1-2" data-name="Слой 1"><path class="cls-1" d="M46.7,4l.25,1,0,1V39q0,4-4,4H6q-4,0-4-4V6l.1-1,.3-1C2.9,2.67,4.1,2,6,2H43c1.9,0,3.13.67,3.7,2M45,5.3l0,.1-.15-.6A2,2,0,0,0,43,4H6a1.79,1.79,0,0,0-1.7.7l0,.1-.15.6,0,.1L4,6V39a1.77,1.77,0,0,0,2,2H43a1.77,1.77,0,0,0,2-2V6l0-.7"/><path class="cls-2" d="M46.7,4c-.57-1.33-1.8-2-3.7-2H6c-1.9,0-3.1.67-3.6,2l-.3,1L2,6V39q0,4,4,4H43q4,0,4-4V6l0-1L46.7,4m2.1,0L49,6V39.25Q48.85,45,43,45H6Q.15,45,0,39.25V6L.2,4Q1.1,0,6,0H43q4.91,0,5.8,4"/><path class="cls-3" d="M45,5.3,45,6V39a1.77,1.77,0,0,1-2,2H6a1.77,1.77,0,0,1-2-2V6l0-.5,0-.1.15-.6,0-.1A1.79,1.79,0,0,1,6,4H43a2,2,0,0,1,1.85.8l.15.6,0-.1"/></g></g></svg>