<svg xmlns="http://www.w3.org/2000/svg" xmlns:xlink="http://www.w3.org/1999/xlink" viewBox="0 0 190 49"><defs><style>.cls-1{fill:#fa8132;}.cls-2{fill:url(#Безымянный_градиент_4);}.cls-3{fill:#cd5d12;}.cls-4{fill:#aa4e11;}</style><linearGradient id="Безымянный_градиент_4" x1="3297.55" y1="46529.89" x2="4935.95" y2="46529.89" gradientTransform="matrix(0, 0.03, 0.02, 0, -955.78, -80.52)" gradientUnits="userSpaceOnUse"><stop offset="0" stop-color="#fa8132"/><stop offset="1" stop-color="#e86a17"/></linearGradient></defs><title>Ресурс 27</title><g id="Слой_2" data-name="Слой 2"><g id="Слой_1-2" data-name="Слой 1"><path class="cls-1" d="M4.3,4.7l0,.1-.15.6,0,.1L4,6V39a1.77,1.77,0,0,0,2,2H184a1.77,1.77,0,0,0,2-2V6L186,5.3l.05.1-.15-.6A2,2,0,0,0,184,4H6a1.79,1.79,0,0,0-1.7.7M2,6l.1-1,.3-1C2.9,2.67,4.1,2,6,2H184c1.9,0,3.13.67,3.7,2l.25,1L188,6V39q0,4-4,4H6q-4,0-4-4V6"/><path class="cls-2" d="M4.3,4.7A1.79,1.79,0,0,1,6,4H184a2,2,0,0,1,1.85.8l.15.6L186,5.3,186,6V39a1.77,1.77,0,0,1-2,2H6a1.77,1.77,0,0,1-2-2V6l0-.5,0-.1.15-.6,0-.1"/><path class="cls-3" d="M2,6V39q0,4,4,4H184q4,0,4-4V6l-.05-1-.25-1c-.57-1.33-1.8-2-3.7-2H6c-1.9,0-3.1.67-3.6,2l-.3,1L2,6M0,39.25V6L.2,4Q1.1,0,6,0H184q4.91,0,5.8,4l.2,2V39.25Q189.85,45,184,45H6Q.15,45,0,39.25"/><path class="cls-4" d="M0,39.25Q.15,45,6,45H184q5.85,0,6-5.75V43c0,3.63-1.65,5.62-4.95,6L184,49H6L5,49C1.65,48.62,0,46.63,0,43V39.25"/></g></g></svg>