<svg xmlns="http://www.w3.org/2000/svg" viewBox="0 0 190 49"><defs><style>.cls-1{fill:#cd5d12;}.cls-2{fill:#fa8132;}.cls-3{fill:#aa4e11;}.cls-4{fill:#e86a17;}</style></defs><title>Ресурс 23</title><g id="Слой_2" data-name="Слой 2"><g id="Слой_1-2" data-name="Слой 1"><path class="cls-1" d="M0,39.25V6L.2,4Q1.1,0,6,0H184q4.91,0,5.8,4l.2,2V39.25Q189.85,45,184,45H6Q.15,45,0,39.25M188,5.05l-.25-1c-.57-1.33-1.8-2-3.7-2H6c-1.9,0-3.1.67-3.6,2l-.3,1L2,6V39q0,4,4,4H184q4,0,4-4V6l-.05-1"/><path class="cls-2" d="M188,5.05,188,6V39q0,4-4,4H6q-4,0-4-4V6l.1-1,.3-1C2.9,2.67,4.1,2,6,2H184c1.9,0,3.13.67,3.7,2l.25,1M184,40a.88.88,0,0,0,1-1V22.5H5V39a.88.88,0,0,0,1,1H184"/><path class="cls-3" d="M190,39.25V43c0,3.63-1.65,5.62-4.95,6L184,49H6L5,49C1.65,48.62,0,46.63,0,43V39.25Q.15,45,6,45H184q5.85,0,6-5.75"/><path class="cls-4" d="M184,40H6a.88.88,0,0,1-1-1V22.5H185V39a.88.88,0,0,1-1,1"/></g></g></svg>