<svg xmlns="http://www.w3.org/2000/svg" viewBox="0 0 194 49"><defs><style>.cls-1{fill:#fff;}.cls-2{fill:#c6c6c6;}.cls-3{fill:#ececec;}</style></defs><title>Ресурс 41</title><g id="Слой_2" data-name="Слой 2"><g id="Слой_1-2" data-name="Слой 1"><path class="cls-1" d="M8,0H186q8,0,8,8V41.3q-.19,7.39-7.4,7.7H7q-6.4-.55-6.9-7l0-.75V8Q0,0,8,0"/><path class="cls-2" d="M190,9.7V8l-.05-1Q189.5,4,186,4H8Q4.51,4,4.1,7.05L4,8V41.15l.1.85q.41,3,3.9,3H186q3.5,0,3.95-3l.05-.75V9.7M8,2H186q6,0,6,6V41.25c-.1,3.67-1.93,5.58-5.5,5.75H7.1c-3.13-.27-4.82-2-5-5.15l0-.6V8Q2,2,8,2"/><path class="cls-3" d="M4,9.8V8l.1-1Q4.51,4,8,4H186q3.5,0,3.95,3.05L190,8V9.7L190,9.05Q189.5,6,186,6H8Q4.51,6,4.1,9.05L4,9.8"/><path class="cls-1" d="M4,9.8l.1-.75Q4.51,6,8,6H186q3.5,0,3.95,3.05l.05.65V41.25L190,42q-.45,3-3.95,3H8q-3.49,0-3.9-3L4,41.15V9.8"/></g></g></svg>