<svg xmlns="http://www.w3.org/2000/svg" viewBox="0 0 35.5 35.5"><defs><style>.cls-1{fill:#999;}.cls-2{fill:#fff;}.cls-3{fill:#eee;}.cls-4{fill:#e86a17;}</style></defs><title>Ресурс 50</title><g id="Слой_2" data-name="Слой 2"><g id="Слой_1-2" data-name="Слой 1"><path class="cls-1" d="M30.3,5.2a17.09,17.09,0,0,1,5.2,12.55A17.09,17.09,0,0,1,30.3,30.3a17.09,17.09,0,0,1-12.55,5.2A17.09,17.09,0,0,1,5.2,30.3h0A17.2,17.2,0,0,1,0,17.75,17.2,17.2,0,0,1,5.15,5.2l0,0A17.2,17.2,0,0,1,17.75,0,17.2,17.2,0,0,1,30.3,5.15v0M28.9,6.6A15.17,15.17,0,0,0,17.75,2,15.28,15.28,0,0,0,6.6,6.6,15.28,15.28,0,0,0,2,17.75,15.17,15.17,0,0,0,6.6,28.9a15.17,15.17,0,0,0,11.15,4.6,15.12,15.12,0,0,0,11.1-4.6l0,0a15.12,15.12,0,0,0,4.6-11.1A15.17,15.17,0,0,0,28.9,6.6"/><path class="cls-2" d="M28.9,6.6a15.17,15.17,0,0,1,4.6,11.15,15.12,15.12,0,0,1-4.6,11.1l0,0a15.12,15.12,0,0,1-11.1,4.6A15.17,15.17,0,0,1,6.6,28.9,15.17,15.17,0,0,1,2,17.75,15.28,15.28,0,0,1,6.6,6.6,15.28,15.28,0,0,1,17.75,2,15.17,15.17,0,0,1,28.9,6.6M27.45,8a13.2,13.2,0,0,0-9.7-4A13.36,13.36,0,0,0,8,8a13.36,13.36,0,0,0-4,9.75,13.2,13.2,0,0,0,4,9.7,13.29,13.29,0,0,0,9.75,4.05,13.13,13.13,0,0,0,9.7-4.05,13.13,13.13,0,0,0,4.05-9.7A13.29,13.29,0,0,0,27.45,8"/><path class="cls-3" d="M27.45,8a13.29,13.29,0,0,1,4.05,9.75,13.13,13.13,0,0,1-4.05,9.7,13.13,13.13,0,0,1-9.7,4.05A13.29,13.29,0,0,1,8,27.45a13.2,13.2,0,0,1-4-9.7A13.36,13.36,0,0,1,8,8a13.36,13.36,0,0,1,9.75-4,13.2,13.2,0,0,1,9.7,4"/><path class="cls-4" d="M17.75,9.5a7.9,7.9,0,0,1,5.8,2.4A8,8,0,0,1,26,17.75a7.83,7.83,0,0,1-2.45,5.8A7.83,7.83,0,0,1,17.75,26a7.89,7.89,0,0,1-5.85-2.45,7.9,7.9,0,0,1-2.4-5.8,8.06,8.06,0,0,1,2.4-5.85,8,8,0,0,1,5.85-2.4"/></g></g></svg>