<svg xmlns="http://www.w3.org/2000/svg" viewBox="0 0 49 49"><defs><style>.cls-1{fill:#fff;}.cls-2{fill:#eee;}.cls-3{fill:#d5d5d5;}.cls-4{fill:#aaa;}</style></defs><title>Ресурс 85</title><g id="Слой_2" data-name="Слой 2"><g id="Слой_1-2" data-name="Слой 1"><path class="cls-1" d="M2.1,5.05Q2.51,2,6,2H43q3.49,0,4,3.05l0,1V39q0,4-4,4H6q-4,0-4-4V6l.1-1m2,.25,0,.2L4,6V39a1.77,1.77,0,0,0,2,2H43a1.77,1.77,0,0,0,2-2V6l0-.7,0,0A1.8,1.8,0,0,0,43,4H6c-1.1,0-1.73.43-1.9,1.3"/><path class="cls-2" d="M4.1,5.3C4.27,4.43,4.9,4,6,4H43a1.8,1.8,0,0,1,2,1.35l0,0L45,6V39a1.77,1.77,0,0,1-2,2H6a1.77,1.77,0,0,1-2-2V6l0-.5,0-.2"/><path class="cls-3" d="M0,39.25V6Q0,0,6,0H43q6,0,6,6V39.25Q48.85,45,43,45H6Q.15,45,0,39.25M2.1,5.05,2,6V39q0,4,4,4H43q4,0,4-4V6l0-1q-.45-3-4-3H6Q2.51,2,2.1,5.05"/><path class="cls-4" d="M49,39.25V43q0,6-6,6H6q-6,0-6-6V39.25Q.15,45,6,45H43q5.85,0,6-5.75"/></g></g></svg>