<svg xmlns="http://www.w3.org/2000/svg" viewBox="0 0 100 100"><defs><style>.cls-1{fill:#5fb13a;}.cls-2{fill:#73cd4b;}.cls-3{fill:#88e060;}</style></defs><title>Ресурс 38</title><g id="Слой_2" data-name="Слой 2"><g id="Слой_1-2" data-name="Слой 1"><path class="cls-1" d="M98,7.05Q98,2,92.9,2H7.05Q2,2,2,7.05V93Q2,98,7.05,98H92.9Q98,98,98,93V7.05m2,0V93a6.74,6.74,0,0,1-1.85,5.2Q96.45,100,92.9,100H7.05q-7,0-7-7V7.05Q0,0,7.05,0H92.9q3.55,0,5.25,1.85A6.74,6.74,0,0,1,100,7.05"/><path class="cls-2" d="M92.9,4Q96,4,96,7.05V93q0,3-3.1,3H7.05a2.7,2.7,0,0,1-3-3V7.05A2.7,2.7,0,0,1,7.05,4H92.9"/><path class="cls-3" d="M92.9,4H7.05A2.7,2.7,0,0,0,4,7.05V93a2.7,2.7,0,0,0,3.05,3H92.9Q96,96,96,93V7.05q0-3-3.1-3M98,7.05V93q0,5.05-5.1,5H7.05Q2,98,2,93V7.05Q2,2,7.05,2H92.9Q98,2,98,7.05"/></g></g></svg>