<svg xmlns="http://www.w3.org/2000/svg" viewBox="0 0 49 49"><defs><style>.cls-1{fill:#fa8132;}.cls-2{fill:#cd5d12;}.cls-3{fill:#aa4e11;}.cls-4{fill:#e86a17;}</style></defs><title>Ресурс 106</title><g id="Слой_2" data-name="Слой 2"><g id="Слой_1-2" data-name="Слой 1"><path class="cls-1" d="M47,6V39q0,4-4,4H6q-4,0-4-4V6l.1-1,.3-1C2.9,2.67,4.1,2,6,2H43c1.9,0,3.13.67,3.7,2l.25,1,0,1M6,4a1.79,1.79,0,0,0-1.7.7l0,.1-.15.6,0,.1L4,6V39a1.77,1.77,0,0,0,2,2H43a1.77,1.77,0,0,0,2-2V6l0-.7,0,.1-.15-.6A2,2,0,0,0,43,4H6"/><path class="cls-2" d="M0,39.25V6L.2,4Q1.1,0,6,0H43q4.91,0,5.8,4L49,6V39.25Q48.85,45,43,45H6Q.15,45,0,39.25M47,6l0-1L46.7,4c-.57-1.33-1.8-2-3.7-2H6c-1.9,0-3.1.67-3.6,2l-.3,1L2,6V39q0,4,4,4H43q4,0,4-4V6"/><path class="cls-3" d="M49,39.25V43c0,3.63-1.65,5.62-5,6l-1,0H6L5,49C1.65,48.62,0,46.63,0,43V39.25Q.15,45,6,45H43q5.85,0,6-5.75"/><path class="cls-4" d="M6,4H43a2,2,0,0,1,1.85.8l.15.6,0-.1L45,6V39a1.77,1.77,0,0,1-2,2H6a1.77,1.77,0,0,1-2-2V6l0-.5,0-.1.15-.6,0-.1A1.79,1.79,0,0,1,6,4"/></g></g></svg>