<svg xmlns="http://www.w3.org/2000/svg" viewBox="0 0 49 49"><defs><style>.cls-1{fill:#1989b8;}.cls-2{fill:#35baf3;}.cls-3{fill:#166e93;}.cls-4{fill:#1ea7e1;}</style></defs><title>Ресурс 111</title><g id="Слой_2" data-name="Слой 2"><g id="Слой_1-2" data-name="Слой 1"><path class="cls-1" d="M2,39q0,4,4,4H43q4,0,4-4V6l0-1q-.45-3-4-3H6Q2.51,2,2.1,5.05L2,6V39m-2,.25V6Q0,0,6,0H43q6,0,6,6V39.25Q48.85,45,43,45H6Q.15,45,0,39.25"/><path class="cls-2" d="M2,39V6l.1-1Q2.51,2,6,2H43q3.49,0,4,3.05l0,1V39q0,4-4,4H6q-4,0-4-4M5,22.5V39a.88.88,0,0,0,1,1H43a.88.88,0,0,0,1-1V22.5H5"/><path class="cls-3" d="M49,39.25V43q0,6-6,6H6q-6,0-6-6V39.25Q.15,45,6,45H43q5.85,0,6-5.75"/><path class="cls-4" d="M5,22.5H44V39a.88.88,0,0,1-1,1H6a.88.88,0,0,1-1-1V22.5"/></g></g></svg>