<svg xmlns="http://www.w3.org/2000/svg" xmlns:xlink="http://www.w3.org/1999/xlink" viewBox="0 0 49 45"><defs><style>.cls-1{fill:#88e060;}.cls-2{fill:#5fb13a;}.cls-3{fill:url(#Безымянный_градиент_18);}</style><linearGradient id="Безымянный_градиент_18" x1="3667.55" y1="46145.89" x2="5305.95" y2="46145.89" gradientTransform="matrix(0, 0.03, 0.02, 0, -1017.61, -89.78)" gradientUnits="userSpaceOnUse"><stop offset="0" stop-color="#88e060"/><stop offset="1" stop-color="#73cd4b"/></linearGradient></defs><title>Ресурс 102</title><g id="Слой_2" data-name="Слой 2"><g id="Слой_1-2" data-name="Слой 1"><path class="cls-1" d="M4.1,5.3l0,.2L4,6V39a1.77,1.77,0,0,0,2,2H43a1.77,1.77,0,0,0,2-2V6l0-.7,0,0A1.8,1.8,0,0,0,43,4H6c-1.1,0-1.73.43-1.9,1.3m-2-.25Q2.51,2,6,2H43q3.49,0,4,3.05l0,1V39q0,4-4,4H6q-4,0-4-4V6l.1-1"/><path class="cls-2" d="M2.1,5.05,2,6V39q0,4,4,4H43q4,0,4-4V6l0-1q-.45-3-4-3H6Q2.51,2,2.1,5.05M6,0H43q6,0,6,6V39.25Q48.85,45,43,45H6Q.15,45,0,39.25V6Q0,0,6,0"/><path class="cls-3" d="M4.1,5.3C4.27,4.43,4.9,4,6,4H43a1.8,1.8,0,0,1,2,1.35l0,0L45,6V39a1.77,1.77,0,0,1-2,2H6a1.77,1.77,0,0,1-2-2V6l0-.5,0-.2"/></g></g></svg>