<svg xmlns="http://www.w3.org/2000/svg" viewBox="0 0 190 45"><defs><style>.cls-1{fill:#fa8132;}.cls-2{fill:#e86a17;}.cls-3{fill:#cd5d12;}</style></defs><title>Ресурс 24</title><g id="Слой_2" data-name="Слой 2"><g id="Слой_1-2" data-name="Слой 1"><path class="cls-1" d="M2.1,40,2,39V6l.1-1,.3-1C2.9,2.67,4.1,2,6,2H184c1.9,0,3.13.67,3.7,2l.25,1L188,6V39L188,40q-.45,3-3.95,3H6q-3.49,0-3.9-3M5,22.5V39a.88.88,0,0,0,1,1H184a.88.88,0,0,0,1-1V22.5H5"/><path class="cls-2" d="M5,22.5H185V39a.88.88,0,0,1-1,1H6a.88.88,0,0,1-1-1V22.5"/><path class="cls-3" d="M0,39.25V6L.2,4Q1.1,0,6,0H184q4.91,0,5.8,4l.2,2V39.25q-.1,5.2-4.95,5.7L184,45H6L5,45c-3-.3-4.67-2-4.9-5.1l0-.6M2.1,40q.4,3,3.9,3H184q3.5,0,3.95-3l.05-1V6l-.05-1-.25-1c-.57-1.33-1.8-2-3.7-2H6c-1.9,0-3.1.67-3.6,2l-.3,1L2,6V39l.1,1"/></g></g></svg>