<svg xmlns="http://www.w3.org/2000/svg" viewBox="0 0 190 179"><defs><style>.cls-1{fill:#ececec;}.cls-2{fill:#c6c6c6;}.cls-3{fill:#fff;}.cls-4{fill:#ccc;}</style></defs><title>Ресурс 46</title><g id="Слой_2" data-name="Слой 2"><g id="Слой_1-2" data-name="Слой 1"><path class="cls-1" d="M4,9.6V8l.1-1Q4.51,4,8,4H182q3.5,0,3.95,3.05L186,8V9.55l-.05-.5Q185.5,6,182,6H8Q4.51,6,4.1,9.05L4,9.6"/><path class="cls-2" d="M4,9.6V29H2V8Q2,2,8,2H182q6,0,6,6V29h-2V8l-.05-1Q185.5,4,182,4H8Q4.51,4,4.1,7.05L4,8V9.6M2,29H4V171.15l.1.85q.41,3,3.9,3H182q3.5,0,3.95-3l.05-.75V29h2V171.25c-.1,3.67-1.93,5.58-5.5,5.75H7.1c-3.13-.27-4.82-2-5-5.15l0-.6V29"/><path class="cls-3" d="M2,29V171.25l0,.6C2.28,175,4,176.73,7.1,177H182.5c3.57-.17,5.4-2.08,5.5-5.75V29h2V171.3q-.19,7.39-7.4,7.7H7q-6.4-.56-6.9-7l0-.75V29H2M4,9.6l.1-.55Q4.51,6,8,6H182q3.5,0,3.95,3.05l.05.5V29H4V9.6M188,29V8q0-6-6-6H8Q2,2,2,8V29H0V8Q0,0,8,0H182q8,0,8,8V29h-2M4,29H186V171.25L186,172q-.45,3-3.95,3H8q-3.49,0-3.9-3l-.1-.85V29"/><path class="cls-4" d="M175,51H15V49H175v2"/><path class="cls-4" d="M175,91H15V89H175v2"/><path class="cls-4" d="M175,131H15v-2H175v2"/></g></g></svg>