<svg xmlns="http://www.w3.org/2000/svg" viewBox="0 0 190 45"><defs><style>.cls-1{fill:#35baf3;}.cls-2{fill:#1989b8;}.cls-3{fill:#1ea7e1;}</style></defs><title>Ресурс 31</title><g id="Слой_2" data-name="Слой 2"><g id="Слой_1-2" data-name="Слой 1"><path class="cls-1" d="M2,6l.1-1Q2.51,2,6,2H184q3.5,0,3.95,3.05L188,6V39L188,40q-.45,3-3.95,3H6q-3.49,0-3.9-3L2,39V6M5,39a.88.88,0,0,0,1,1H184a.88.88,0,0,0,1-1V22.5H5V39"/><path class="cls-2" d="M2,6V39l.1,1q.4,3,3.9,3H184q3.5,0,3.95-3l.05-1V6l-.05-1Q187.5,2,184,2H6Q2.51,2,2.1,5.05L2,6M6,0H184q6,0,6,6V39.25Q189.85,45,184,45H5.1C2,44.73.28,43,.05,39.85l0-.6V6Q0,0,6,0"/><path class="cls-3" d="M5,39V22.5H185V39a.88.88,0,0,1-1,1H6a.88.88,0,0,1-1-1"/></g></g></svg>