<svg xmlns="http://www.w3.org/2000/svg" xmlns:xlink="http://www.w3.org/1999/xlink" viewBox="0 0 190 45"><defs><style>.cls-1{fill:#88e060;}.cls-2{fill:url(#Безымянный_градиент_8);}.cls-3{fill:#5fb13a;}</style><linearGradient id="Безымянный_градиент_8" x1="3087.55" y1="46585.89" x2="4725.95" y2="46585.89" gradientTransform="matrix(0, 0.03, 0.02, 0, -957.05, -75.26)" gradientUnits="userSpaceOnUse"><stop offset="0" stop-color="#88e060"/><stop offset="1" stop-color="#73cd4b"/></linearGradient></defs><title>Ресурс 21</title><g id="Слой_2" data-name="Слой 2"><g id="Слой_1-2" data-name="Слой 1"><path class="cls-1" d="M186,6,186,5.3l.05,0A1.8,1.8,0,0,0,184,4H6c-1.1,0-1.73.43-1.9,1.3l0,.2L4,6V39a1.77,1.77,0,0,0,2,2H184a1.77,1.77,0,0,0,2-2V6m1.95-1L188,6V39q0,4-4,4H6q-4,0-4-4V6l.1-1Q2.51,2,6,2H184q3.5,0,3.95,3.05"/><path class="cls-2" d="M186,6V39a1.77,1.77,0,0,1-2,2H6a1.77,1.77,0,0,1-2-2V6l0-.5,0-.2C4.27,4.43,4.9,4,6,4H184a1.8,1.8,0,0,1,2,1.35l-.05,0L186,6"/><path class="cls-3" d="M188,5.05Q187.5,2,184,2H6Q2.51,2,2.1,5.05L2,6V39q0,4,4,4H184q4,0,4-4V6l-.05-1M184,45H6Q.15,45,0,39.25V6Q0,0,6,0H184q6,0,6,6V39.25Q189.85,45,184,45"/></g></g></svg>