<svg xmlns="http://www.w3.org/2000/svg" viewBox="0 0 49 45"><defs><style>.cls-1{fill:#fff;}.cls-2{fill:#d5d5d5;}.cls-3{fill:#eee;}</style></defs><title>Ресурс 86</title><g id="Слой_2" data-name="Слой 2"><g id="Слой_1-2" data-name="Слой 1"><path class="cls-1" d="M4.1,5.3l0,.2L4,6V39l0,.6,0,.15C4.27,40.58,4.9,41,6,41H43q1.61,0,2-1.2l0-.8V6l0-.7,0,0A1.8,1.8,0,0,0,43,4H6c-1.1,0-1.73.43-1.9,1.3m-2-.25Q2.51,2,6,2H43q3.49,0,4,3.05l0,1V39l0,1q-.45,3-4,3H6q-3.49,0-3.9-3L2,39V6l.1-1"/><path class="cls-2" d="M2.1,5.05,2,6V39l.1,1q.4,3,3.9,3H43q3.49,0,4-3l0-1V6l0-1q-.45-3-4-3H6Q2.51,2,2.1,5.05M6,0H43q6,0,6,6V39.25Q48.85,45,43,45H5.1C2,44.73.28,43,.05,39.85l0-.6V6Q0,0,6,0"/><path class="cls-3" d="M4.1,5.3C4.27,4.43,4.9,4,6,4H43a1.8,1.8,0,0,1,2,1.35l0,0L45,6V39l0,.8Q44.61,41,43,41H6c-1.1,0-1.73-.42-1.9-1.25l0-.15L4,39V6l0-.5,0-.2"/></g></g></svg>