<svg xmlns="http://www.w3.org/2000/svg" viewBox="0 0 190 49"><defs><style>.cls-1{fill:#35baf3;}.cls-2{fill:#1989b8;}.cls-3{fill:#1ea7e1;}.cls-4{fill:#166e93;}</style></defs><title>Ресурс 32</title><g id="Слой_2" data-name="Слой 2"><g id="Слой_1-2" data-name="Слой 1"><path class="cls-1" d="M4.1,5.3l0,.2L4,6V39a1.77,1.77,0,0,0,2,2H184a1.77,1.77,0,0,0,2-2V6L186,5.3l.05,0A1.8,1.8,0,0,0,184,4H6c-1.1,0-1.73.43-1.9,1.3m-2-.25Q2.51,2,6,2H184q3.5,0,3.95,3.05L188,6V39q0,4-4,4H6q-4,0-4-4V6l.1-1"/><path class="cls-2" d="M2.1,5.05,2,6V39q0,4,4,4H184q4,0,4-4V6l-.05-1Q187.5,2,184,2H6Q2.51,2,2.1,5.05M0,39.25V6Q0,0,6,0H184q6,0,6,6V39.25Q189.85,45,184,45H6Q.15,45,0,39.25"/><path class="cls-3" d="M4.1,5.3C4.27,4.43,4.9,4,6,4H184a1.8,1.8,0,0,1,2,1.35l-.05,0L186,6V39a1.77,1.77,0,0,1-2,2H6a1.77,1.77,0,0,1-2-2V6l0-.5,0-.2"/><path class="cls-4" d="M190,39.25V43q0,6-6,6H6q-6,0-6-6V39.25Q.15,45,6,45H184q5.85,0,6-5.75"/></g></g></svg>