<svg xmlns="http://www.w3.org/2000/svg" viewBox="0 0 49 45"><defs><style>.cls-1{fill:#fa8132;}.cls-2{fill:#e86a17;}.cls-3{fill:#cd5d12;}</style></defs><title>Ресурс 107</title><g id="Слой_2" data-name="Слой 2"><g id="Слой_1-2" data-name="Слой 1"><path class="cls-1" d="M4.3,4.7l0,.1-.15.6,0,.1L4,6V39l0,.6,0,.15C4.27,40.58,4.9,41,6,41H43q1.61,0,2-1.2l0-.8V6l0-.7,0,.1-.15-.6A2,2,0,0,0,43,4H6a1.79,1.79,0,0,0-1.7.7M2.4,4C2.9,2.67,4.1,2,6,2H43c1.9,0,3.13.67,3.7,2l.25,1,0,1V39l0,1q-.45,3-4,3H6q-3.49,0-3.9-3L2,39V6l.1-1,.3-1"/><path class="cls-2" d="M4.3,4.7A1.79,1.79,0,0,1,6,4H43a2,2,0,0,1,1.85.8l.15.6,0-.1L45,6V39l0,.8Q44.61,41,43,41H6c-1.1,0-1.73-.42-1.9-1.25l0-.15L4,39V6l0-.5,0-.1.15-.6,0-.1"/><path class="cls-3" d="M2.4,4l-.3,1L2,6V39l.1,1q.4,3,3.9,3H43q3.49,0,4-3l0-1V6l0-1L46.7,4c-.57-1.33-1.8-2-3.7-2H6c-1.9,0-3.1.67-3.6,2M.2,4Q1.1,0,6,0H43q4.91,0,5.8,4L49,6V39.25q-.11,5.2-5,5.7l-1,0H6L5,45c-3-.3-4.67-2-4.9-5.1l0-.6V6L.2,4"/></g></g></svg>