<svg xmlns="http://www.w3.org/2000/svg" viewBox="0 0 49 45"><defs><style>.cls-1{fill:#cda400;}.cls-2{fill:#ffd948;}.cls-3{fill:#fc0;}</style></defs><title>Ресурс 91</title><g id="Слой_2" data-name="Слой 2"><g id="Слой_1-2" data-name="Слой 1"><path class="cls-1" d="M43,2H6Q2.51,2,2.1,5.05L2,6V39l.1,1q.4,3,3.9,3H43q3.49,0,4-3l0-1V6l0-1q-.45-3-4-3m6,4V39.25Q48.85,45,43,45H5.1C2,44.73.28,43,.05,39.85l0-.6V6Q0,0,6,0H43q6,0,6,6"/><path class="cls-2" d="M43,2q3.49,0,4,3.05l0,1V39l0,1q-.45,3-4,3H6q-3.49,0-3.9-3L2,39V6l.1-1Q2.51,2,6,2H43m1,37V22.5H5V39a.88.88,0,0,0,1,1H43a.88.88,0,0,0,1-1"/><path class="cls-3" d="M44,39a.88.88,0,0,1-1,1H6a.88.88,0,0,1-1-1V22.5H44V39"/></g></g></svg>