<svg xmlns="http://www.w3.org/2000/svg" viewBox="0 0 36 36"><defs><style>.cls-1{fill:#999;}.cls-2{fill:#fff;}.cls-3{fill:#eee;}.cls-4{fill:#e86a17;}</style></defs><title>Ресурс 65</title><g id="Слой_2" data-name="Слой 2"><g id="Слой_1-2" data-name="Слой 1"><path class="cls-1" d="M2,9.1V27Q2,34,9.1,34H26.9Q34,34,34,27V9.1Q34,2,26.9,2H9.1Q2,2,2,9.1m-2,0Q0,0,9.1,0H26.9Q36,0,36,9.1V27q0,4.5-2.35,6.7Q31.4,36,26.9,36H9.1q-4.5,0-6.75-2.35T0,27V9.1"/><path class="cls-2" d="M2,9.1Q2,2,9.1,2H26.9Q34,2,34,9.1V27Q34,34,26.9,34H9.1Q2,34,2,27V9.1M4,27Q4,32,9.1,32H26.9Q32,32,32,27V9.1Q32,4,26.9,4H9.1Q4,4,4,9.1V27"/><path class="cls-3" d="M4,27V9.1Q4,4,9.1,4H26.9Q32,4,32,9.1V27Q32,32,26.9,32H9.1Q4,32,4,27"/><path class="cls-4" d="M8.05,16.35l.15-.2,5.45-3,.3,0,.2.15,2.3,3.3L23,8.1l.25-.1.2.05,5.45,3.6.15.2L29,12.1,16.65,27.85,16.5,28,16.3,28l-.2-.1L8.1,16.6l0-.25"/></g></g></svg>