<svg xmlns="http://www.w3.org/2000/svg" viewBox="0 0 190 45"><defs><style>.cls-1{fill:#cda400;}.cls-2{fill:#ffd948;}.cls-3{fill:#fc0;}</style></defs><title>Ресурс 12</title><g id="Слой_2" data-name="Слой 2"><g id="Слой_1-2" data-name="Слой 1"><path class="cls-1" d="M188,5.05Q187.5,2,184,2H6Q2.51,2,2.1,5.05L2,6V39l.1,1q.4,3,3.9,3H184q3.5,0,3.95-3l.05-1V6l-.05-1M190,6V39.25Q189.85,45,184,45H5.1C2,44.73.28,43,.05,39.85l0-.6V6Q0,0,6,0H184q6,0,6,6"/><path class="cls-2" d="M186,6,186,5.3l.05,0A1.8,1.8,0,0,0,184,4H6c-1.1,0-1.73.43-1.9,1.3l0,.2L4,6V39l0,.6,0,.15C4.27,40.58,4.9,41,6,41H184q1.6,0,1.95-1.2L186,39V6m1.95-1L188,6V39L188,40q-.45,3-3.95,3H6q-3.49,0-3.9-3L2,39V6l.1-1Q2.51,2,6,2H184q3.5,0,3.95,3.05"/><path class="cls-3" d="M186,6V39l-.05.8Q185.61,41,184,41H6c-1.1,0-1.73-.42-1.9-1.25l0-.15L4,39V6l0-.5,0-.2C4.27,4.43,4.9,4,6,4H184a1.8,1.8,0,0,1,2,1.35l-.05,0L186,6"/></g></g></svg>