<svg xmlns="http://www.w3.org/2000/svg" viewBox="0 0 34 28"><defs><style>.cls-1{fill:#fff;}</style></defs><title>Ресурс 29</title><g id="Слой_2" data-name="Слой 2"><g id="Layer_1" data-name="Layer 1"><path class="cls-1" d="M23.4.6A1.92,1.92,0,0,1,24,2V13h8a2.05,2.05,0,0,1,2,2V26a2,2,0,0,1-.6,1.45A2,2,0,0,1,32,28H2a2,2,0,0,1-1.45-.55A2,2,0,0,1,0,26V15.05A2,2,0,0,1,.55,13.6,2,2,0,0,1,2,13H9V2.05A2,2,0,0,1,9.55.6,2,2,0,0,1,11,0H22a1.92,1.92,0,0,1,1.4.6M29,21.7a2,2,0,0,0-.45-1.3,2,2,0,0,0-1.3-.7l1.45-1.6V17H24.4v1.35h2.2L25.25,19.9V21l.95-.15a1.58,1.58,0,0,1,.95.25.82.82,0,0,1,.35.7l-.3.65-.8.2a3.19,3.19,0,0,1-1.75-.7L24,23.2a4.25,4.25,0,0,0,2.35.8,2.94,2.94,0,0,0,1.9-.6A2.06,2.06,0,0,0,29,21.7M9.8,19.1a2,2,0,0,0-.7-1.6A2.48,2.48,0,0,0,7.55,17a2.39,2.39,0,0,0-1.45.4A3.39,3.39,0,0,0,5,18.5l1.25.75c.4-.63.8-.95,1.2-.95l.6.2.25.6-.3.75-.85.95-2,2.05V24H10V22.6H7.25L8.5,21.35l1-1.25.3-1M15,5V6.35h1.45V12H18V5H15"/></g></g></svg>