<svg xmlns="http://www.w3.org/2000/svg" viewBox="0 0 32 32"><defs><style>.cls-1{fill:#fff;}</style></defs><title>Ресурс 82</title><g id="Слой_2" data-name="Слой 2"><g id="Layer_1" data-name="Layer 1"><path class="cls-1" d="M27.3,27.3A15.32,15.32,0,0,1,16,32,15.48,15.48,0,0,1,4.65,27.3,15.39,15.39,0,0,1,0,16,15.55,15.55,0,0,1,4.65,4.65,15.55,15.55,0,0,1,16,0,15.39,15.39,0,0,1,27.3,4.65,15.48,15.48,0,0,1,32,16a15.32,15.32,0,0,1-4.7,11.3M18.45,10.9a4.54,4.54,0,0,0-3-1.1,5.13,5.13,0,0,0-2.85.75,7.7,7.7,0,0,0-2,2.2l2.4,1.4c.73-1.2,1.52-1.8,2.35-1.8a1.55,1.55,0,0,1,1.15.45,1.5,1.5,0,0,1,.45,1.1,2.42,2.42,0,0,1-.5,1.4l-1.7,1.9-3.9,4v2.2h9.35V20.75H14.9l2.4-2.5,1.95-2.4a4.16,4.16,0,0,0,.5-1.95,3.7,3.7,0,0,0-1.3-3"/></g></g></svg>