<svg xmlns="http://www.w3.org/2000/svg" viewBox="0 0 34 35.95"><defs><style>.cls-1{fill:#fff;}</style></defs><title>Ресурс 69</title><g id="Слой_2" data-name="Слой 2"><g id="Layer_1" data-name="Layer 1"><path class="cls-1" d="M26.85,0a7,7,0,0,1,5,2.05A7,7,0,0,1,34,7.2a6.88,6.88,0,0,1-2.1,5.05,7.18,7.18,0,0,1-10.15,0l-.55-.6-7,4.85L14.35,18l-.25,1.9,7,4.5.6-.7a7.18,7.18,0,0,1,10.15,0,7.24,7.24,0,0,1,0,10.2,7.18,7.18,0,0,1-10.15,0,7,7,0,0,1-2.05-5.1l.1-1.05L12.3,23l-.1.1a6.88,6.88,0,0,1-5,2.1,6.94,6.94,0,0,1-5.1-2.1A7,7,0,0,1,0,18a7,7,0,0,1,2.05-5.1,6.94,6.94,0,0,1,5.1-2.1,6.88,6.88,0,0,1,5,2.1l.4.4,7.2-4.9L19.7,7.2A7,7,0,0,1,26.85,0"/></g></g></svg>