<svg xmlns="http://www.w3.org/2000/svg" viewBox="0 0 32 32"><defs><style>.cls-1{fill:#fff;}</style></defs><title>Ресурс 5</title><g id="Слой_2" data-name="Слой 2"><g id="Layer_1" data-name="Layer 1"><path class="cls-1" d="M32,2V6a2,2,0,0,1-.6,1.45A2,2,0,0,1,30,8H26a2,2,0,0,1-1.45-.55A2,2,0,0,1,24,6V2.05A2,2,0,0,1,24.55.6,2,2,0,0,1,26,0h4a1.92,1.92,0,0,1,1.4.6A1.92,1.92,0,0,1,32,2M20,2V6a2,2,0,0,1-.6,1.45A2,2,0,0,1,18,8H14a2,2,0,0,1-1.45-.55A2,2,0,0,1,12,6V2.05A2,2,0,0,1,12.55.6,2,2,0,0,1,14,0h4a1.92,1.92,0,0,1,1.4.6A1.92,1.92,0,0,1,20,2m6,10h4a2.05,2.05,0,0,1,2,2v4a2,2,0,0,1-.6,1.45A2,2,0,0,1,30,20H26a1.89,1.89,0,0,1-2-2V14.05a2,2,0,0,1,.55-1.45A2,2,0,0,1,26,12m-6.6.6A1.92,1.92,0,0,1,20,14v4a2,2,0,0,1-.6,1.45A2,2,0,0,1,18,20H14a1.89,1.89,0,0,1-2-2V14.05a2,2,0,0,1,.55-1.45A2,2,0,0,1,14,12h4a1.92,1.92,0,0,1,1.4.6M32,26v4a2,2,0,0,1-.6,1.45A2,2,0,0,1,30,32H26a1.89,1.89,0,0,1-2-2V26.05a2,2,0,0,1,.55-1.45A2,2,0,0,1,26,24h4a2.05,2.05,0,0,1,2,2M19.4,24.6A1.92,1.92,0,0,1,20,26v4a2,2,0,0,1-.6,1.45A2,2,0,0,1,18,32H14a1.89,1.89,0,0,1-2-2V26.05a2,2,0,0,1,.55-1.45A2,2,0,0,1,14,24h4a1.92,1.92,0,0,1,1.4.6M8,2V6a2,2,0,0,1-.6,1.45A2,2,0,0,1,6,8H2A2,2,0,0,1,.55,7.45,2,2,0,0,1,0,6V2.05A2,2,0,0,1,.55.6,2,2,0,0,1,2,0H6A1.92,1.92,0,0,1,7.4.6,1.92,1.92,0,0,1,8,2M6,12a1.92,1.92,0,0,1,1.4.6A1.92,1.92,0,0,1,8,14v4a2,2,0,0,1-.6,1.45A2,2,0,0,1,6,20H2a2,2,0,0,1-1.45-.55A2,2,0,0,1,0,18V14.05A2,2,0,0,1,.55,12.6,2,2,0,0,1,2,12H6M8,26v4a2,2,0,0,1-.6,1.45A2,2,0,0,1,6,32H2a2,2,0,0,1-1.45-.55A2,2,0,0,1,0,30V26.05A2,2,0,0,1,.55,24.6,2,2,0,0,1,2,24H6a1.92,1.92,0,0,1,1.4.6A1.92,1.92,0,0,1,8,26"/></g></g></svg>