<svg xmlns="http://www.w3.org/2000/svg" viewBox="0 0 32.05 32.15"><defs><style>.cls-1{fill:#fff;}</style></defs><title>Ресурс 17</title><g id="Слой_2" data-name="Слой 2"><g id="Layer_1" data-name="Layer 1"><path class="cls-1" d="M20.5,3.5A11.63,11.63,0,0,1,24,12.05a13.27,13.27,0,0,1-.45,3.5l1.3,1.35.3.3.35.35,4.9,4.9a5.75,5.75,0,0,1,1.65,3.95v.25a5.23,5.23,0,0,1-1.65,3.8,5.34,5.34,0,0,1-3.15,1.65l-.8,0-.75,0a5.92,5.92,0,0,1-3.25-1.6L20,28V28l-4.25-4.3.4.45-.55-.55L12,24a11.76,11.76,0,0,1-8.55-3.5A11.59,11.59,0,0,1,0,12.05,11.87,11.87,0,0,1,12,0a11.47,11.47,0,0,1,8.5,3.5m-.6,8.4a7.64,7.64,0,0,0-2.3-5.5V6.35A7.7,7.7,0,0,0,12,4.1,7.88,7.88,0,0,0,6.35,6.35l0,.05a7.77,7.77,0,0,0-2.25,5.65,7.57,7.57,0,0,0,2.3,5.55,7.81,7.81,0,0,0,5.55,2.3H12a7.47,7.47,0,0,0,5.55-2.3h.05a7.57,7.57,0,0,0,2.3-5.55V11.9"/></g></g></svg>