<svg xmlns="http://www.w3.org/2000/svg" viewBox="0 0 29.94 30.98"><defs><style>.cls-1{fill:#fff;}</style></defs><title>Ресурс 41</title><g id="Слой_2" data-name="Слой 2"><g id="Layer_1" data-name="Layer 1"><path class="cls-1" d="M8.19,1.5A2,2,0,0,1,10.44,0H24c2,0,3,1,3,2.9V18.35L26.69,20l-6.8-6.8.75-.2H22V8h-7.3L8.19,1.5m-4.7,1A2,2,0,0,1,4.94,2a1.8,1.8,0,0,1,1.4.6l23,23a1.82,1.82,0,0,1,.6,1.4,2,2,0,0,1-.6,1.45,1.87,1.87,0,0,1-1.4.55,2.07,2.07,0,0,1-1.45-.55l-23-23A2.09,2.09,0,0,1,2.94,4a1.92,1.92,0,0,1,.55-1.4M2,21l.1-.05a7.24,7.24,0,0,1,3.6-2h0L8,19V12.7l4,4V25c.07,1.27-.61,2.53-2.05,3.8l0,.15a6.86,6.86,0,0,1-4.15,2h0A5,5,0,0,1,1.44,29.5,4.77,4.77,0,0,1,0,25.3,7,7,0,0,1,2,21m13-1.3,5.45,5.45a5,5,0,0,1-4.05-1.6,4.84,4.84,0,0,1-1.4-3.85"/></g></g></svg>