<svg xmlns="http://www.w3.org/2000/svg" viewBox="0 0 30 34.95"><defs><style>.cls-1{fill:#fff;}</style></defs><title>Ресурс 70</title><g id="Слой_2" data-name="Слой 2"><g id="Layer_1" data-name="Layer 1"><path class="cls-1" d="M0,34v-6.8a2.85,2.85,0,0,1,.85-2.1V25A2.94,2.94,0,0,1,3,24.1h9V14.4A8.24,8.24,0,0,1,9.6,12.8,7.32,7.32,0,0,1,7.45,7.5,7.43,7.43,0,0,1,15,0a7.21,7.21,0,0,1,5.3,2.2,7.21,7.21,0,0,1,2.2,5.3,7.21,7.21,0,0,1-2.2,5.3A7.64,7.64,0,0,1,18,14.4v9.7H27a3.08,3.08,0,0,1,3,3V34l-.3.7L29,35H1l-.7-.3A1,1,0,0,1,0,34"/></g></g></svg>