<svg xmlns="http://www.w3.org/2000/svg" viewBox="0 0 30.95 28.01"><defs><style>.cls-1{fill:#fff;}</style></defs><title>Ресурс 24</title><g id="Слой_2" data-name="Слой 2"><g id="Layer_1" data-name="Layer 1"><path class="cls-1" d="M28.4,6.16l1.05,1.95.05.1Q32.65,14.45,29,21q-3.7,6.79-11,7.05a1.55,1.55,0,0,1-1.1-.35,1.5,1.5,0,0,1-.5-1.05,27.6,27.6,0,0,1-.45-5.3,1.93,1.93,0,0,1,.4-1,1.35,1.35,0,0,1,1.05-.45A5.62,5.62,0,0,0,21.9,17l0,.05a5.19,5.19,0,0,0,.4-5,5.37,5.37,0,0,0-4.9-3.6H17.3a5.53,5.53,0,0,0-4.2,1.7,21.57,21.57,0,0,1,3.45,2.3,1.46,1.46,0,0,1,.5.85l-.05,1-.7.75-13.9,8-1.1.15a1.44,1.44,0,0,1-.95-.5l-.35-1L.05,5.41l.2-.85L.85,4l.05,0,.75-.2.75.2,3.5,2A14.12,14.12,0,0,1,10.15,2V2A12.57,12.57,0,0,1,20.05.41,14.11,14.11,0,0,1,28.25,6l.15.15"/></g></g></svg>