<svg xmlns="http://www.w3.org/2000/svg" viewBox="0 0 43 24"><defs><style>.cls-1{fill:#fff;}</style></defs><title>Ресурс 91</title><g id="Слой_2" data-name="Слой 2"><g id="Layer_1" data-name="Layer 1"><path class="cls-1" d="M2,0H41a1.92,1.92,0,0,1,1.4.6A1.92,1.92,0,0,1,43,2V22a2,2,0,0,1-.6,1.45A2,2,0,0,1,41,24H2a2,2,0,0,1-1.45-.55A2,2,0,0,1,0,22V2.05A2,2,0,0,1,.55.6,2,2,0,0,1,2,0M31.25,13.75l-.8-.85a1.77,1.77,0,0,1-1.5.75,1.67,1.67,0,0,1-1.15-.45,1.87,1.87,0,0,1-.45-1.3,1.55,1.55,0,0,1,.5-1.2,1.64,1.64,0,0,1,1.2-.5A1.8,1.8,0,0,1,30.5,11l.8-.85a3.1,3.1,0,0,0-4.4-.25,2.85,2.85,0,0,0-.85,2.1A2.68,2.68,0,0,0,26.9,14a2.84,2.84,0,0,0,2.1.8,2.93,2.93,0,0,0,2.25-1.05m5-3.5V9.15H31.75v1.1h1.6v4.5H34.6v-4.5h1.6m-25.9,2.9A1.46,1.46,0,0,0,9.85,12a2.86,2.86,0,0,0-1.25-.6l-1-.35-.25-.4.2-.4.5-.1a2.51,2.51,0,0,1,1.5.55l.65-.95a3.6,3.6,0,0,0-1-.55L8.1,9.05a2.39,2.39,0,0,0-1.45.4A1.52,1.52,0,0,0,6.1,10.7a1.37,1.37,0,0,0,.45,1.15,3,3,0,0,0,1.4.6l.85.3.2.4-.2.4-.55.15a2.63,2.63,0,0,1-1.65-.8l-.75.95a3.49,3.49,0,0,0,2.4,1,2.22,2.22,0,0,0,1.45-.45,1.43,1.43,0,0,0,.6-1.2m7.55.5V9.15H16.6v5.6h3.6v-1.1H17.85m-2.5-3.4V9.15h-4v5.6h4.1v-1.1H12.6V12.5h2.5V11.4H12.6V10.25h2.75m7,3.4V12.5h2.5V11.4H22.4V10.25h2.75V9.15h-4v5.6h4.1v-1.1H22.4"/></g></g></svg>