<svg xmlns="http://www.w3.org/2000/svg" viewBox="0 0 32 32"><defs><style>.cls-1{fill:#fff;}</style></defs><title>Ресурс 31</title><g id="Слой_2" data-name="Слой 2"><g id="Layer_1" data-name="Layer 1"><path class="cls-1" d="M24,8a3.8,3.8,0,0,1-1.2,2.85A3.8,3.8,0,0,1,20,12v8H30a2.05,2.05,0,0,1,2,2V32H0V22.05A2,2,0,0,1,.55,20.6,2,2,0,0,1,2,20H12V12a3.87,3.87,0,0,1-2.85-1.15A4,4,0,0,1,8,8V4A3.8,3.8,0,0,1,9.15,1.2,3.89,3.89,0,0,1,12,0h8a3.74,3.74,0,0,1,2.8,1.2A3.83,3.83,0,0,1,24,4V8m4,16H24v4h4V24"/></g></g></svg>