<svg xmlns="http://www.w3.org/2000/svg" viewBox="0 0 32 32"><defs><style>.cls-1{fill:#fff;}</style></defs><title>Ресурс 49</title><g id="Слой_2" data-name="Слой 2"><g id="Layer_1" data-name="Layer 1"><path class="cls-1" d="M20,12v8H12V12H8V8l8-8,8,8v4H20M6,16a1.92,1.92,0,0,1,1.4.6A1.92,1.92,0,0,1,8,18v6H24V18.05a2,2,0,0,1,.55-1.45A2,2,0,0,1,26,16h4a2.05,2.05,0,0,1,2,2V30a2,2,0,0,1-.6,1.45A2,2,0,0,1,30,32H2a2,2,0,0,1-1.45-.55A2,2,0,0,1,0,30V18.05A2,2,0,0,1,.55,16.6,2,2,0,0,1,2,16H6"/></g></g></svg>