<svg xmlns="http://www.w3.org/2000/svg" viewBox="0 0 40 36.95"><defs><style>.cls-1{fill:#fff;}</style></defs><title>Ресурс 64</title><g id="Слой_2" data-name="Слой 2"><g id="Layer_1" data-name="Layer 1"><path class="cls-1" d="M25.15,12.45a1.68,1.68,0,0,0,.2-1.25,1.36,1.36,0,0,0-.8-.95l-1.25-.2a1.36,1.36,0,0,0-.95.8,1.65,1.65,0,0,0-.15,1.2,1.51,1.51,0,0,0,.75,1l1.2.15,1-.75M27.7,10.6a1.36,1.36,0,0,0,.75,1l1.25.15,1-.7.15-1.25a1.36,1.36,0,0,0-.75-.95,1.58,1.58,0,0,0-1.25-.25,1.51,1.51,0,0,0-1,.8,1.81,1.81,0,0,0-.15,1.25m3.05-8.7a1.36,1.36,0,0,1,.75,1l3.4,12.5-.15,1.25-1,.75L5.4,24.85,4.2,24.7a1.36,1.36,0,0,1-.75-.95L.05,11.3A1.92,1.92,0,0,1,.2,10a1.73,1.73,0,0,1,1-.75L13.8,5.9,12.75,2A1.41,1.41,0,0,1,12.9.8l.25-.4L13.1.2l.8-.2,1.25.2a1.73,1.73,0,0,1,.75,1l1,3.9,12.6-3.35,1.2.15M40,22V36l-.3.7L39,37H37l-.7-.3A1,1,0,0,1,36,36V25H34l-.7-.3L33,24V22a1,1,0,0,1,1-1h5a1,1,0,0,1,.7.3l.3.7m-26.95-9.2L10,13.6l-.8-3.1L6,11.3l.8,3.1-3.15.85.85,3.1,3.15-.85.85,3.15,3.15-.8L10.8,16.7l3.1-.85-.85-3.1"/></g></g></svg>