<svg xmlns="http://www.w3.org/2000/svg" viewBox="0 0 32 32"><defs><style>.cls-1{fill:#fff;}</style></defs><title>Ресурс 48</title><g id="Слой_2" data-name="Слой 2"><g id="Layer_1" data-name="Layer 1"><path class="cls-1" d="M24,8v4l-8,8L8,12V8h4V0h8V8h4M8,18v6H24V18.05a2,2,0,0,1,.55-1.45A2,2,0,0,1,26,16h4a2.05,2.05,0,0,1,2,2V30a2,2,0,0,1-.6,1.45A2,2,0,0,1,30,32H2a2,2,0,0,1-1.45-.55A2,2,0,0,1,0,30V18.05A2,2,0,0,1,.55,16.6,2,2,0,0,1,2,16H6a1.92,1.92,0,0,1,1.4.6A1.92,1.92,0,0,1,8,18"/></g></g></svg>