<svg xmlns="http://www.w3.org/2000/svg" viewBox="0 0 25 32.74"><defs><style>.cls-1{fill:#fff;}</style></defs><title>Ресурс 47</title><g id="Слой_2" data-name="Слой 2"><g id="Layer_1" data-name="Layer 1"><path class="cls-1" d="M2,.1H7v4H4v24H7v4H2a2,2,0,0,1-1.45-.55A2,2,0,0,1,0,30.1V2.15A2,2,0,0,1,.55.7,2,2,0,0,1,2,.1M15.4,17.55A2,2,0,0,0,16,16.1a1.92,1.92,0,0,0-.6-1.4h0A2,2,0,0,0,14,14.1a2.05,2.05,0,0,0-2,2,2,2,0,0,0,.6,1.45,2.06,2.06,0,0,0,2.8,0m-5.85-14A2.4,2.4,0,0,1,11,2.7L25,0V30L11,32.7a1.71,1.71,0,0,1-1.4-.3A1.71,1.71,0,0,1,9,31.05V5.1a2.43,2.43,0,0,1,.55-1.55"/></g></g></svg>