<svg xmlns="http://www.w3.org/2000/svg" viewBox="0 0 24 35"><defs><style>.cls-1{fill:#fff;}</style></defs><title>Ресурс 42</title><g id="Слой_2" data-name="Слой 2"><g id="Layer_1" data-name="Layer 1"><path class="cls-1" d="M17,3h5a1.92,1.92,0,0,1,1.4.6A1.92,1.92,0,0,1,24,5v5.9H0V5.05A2,2,0,0,1,.55,3.6,2,2,0,0,1,2,3H7v-1A2,2,0,0,1,7.55.6,2,2,0,0,1,9,0h6a1.92,1.92,0,0,1,1.4.6A1.92,1.92,0,0,1,17,2V3m5,32H2a2,2,0,0,1-1.45-.55A2,2,0,0,1,0,33V12.9H24V33a2,2,0,0,1-.6,1.45A2,2,0,0,1,22,35"/></g></g></svg>