<svg xmlns="http://www.w3.org/2000/svg" viewBox="0 0 39 36.95"><defs><style>.cls-1{fill:#fff;}</style></defs><title>Ресурс 66</title><g id="Слой_2" data-name="Слой 2"><g id="Layer_1" data-name="Layer 1"><path class="cls-1" d="M.05,11.3A1.92,1.92,0,0,1,.2,10a1.73,1.73,0,0,1,1-.75L13.8,5.9,12.75,2A1.41,1.41,0,0,1,12.9.8l.25-.4L13.1.2l.8-.2,1.25.2a1.73,1.73,0,0,1,.75,1l1,3.9,12.6-3.35,1.2.15a1.36,1.36,0,0,1,.75,1l3.4,12.5-.15,1.25a2,2,0,0,1-1,.75L5.4,24.85,4.2,24.7a1.36,1.36,0,0,1-.75-.95L.05,11.3m3.6,3.95.85,3.1,3.15-.85.85,3.15,3.15-.8L10.8,16.7l3.1-.85-.85-3.1L10,13.6l-.8-3.1L6,11.3l.8,3.1-3.15.85m21.7-4.05a1.36,1.36,0,0,0-.8-.95l-1.25-.2a1.36,1.36,0,0,0-.95.8,1.65,1.65,0,0,0-.15,1.2,1.51,1.51,0,0,0,.75,1l1.2.15a1.73,1.73,0,0,0,1-.75,1.68,1.68,0,0,0,.2-1.25m2.35-.6a1.36,1.36,0,0,0,.75,1l1.25.15,1-.7.15-1.25a1.36,1.36,0,0,0-.75-.95,1.58,1.58,0,0,0-1.25-.25,1.51,1.51,0,0,0-1,.8,1.81,1.81,0,0,0-.15,1.25m11,10.65.3.7V36l-.3.7L38,37H30l-.7-.3A1,1,0,0,1,29,36V34a1,1,0,0,1,1-1h5V31H30l-.7-.3A1,1,0,0,1,29,30V28a1,1,0,0,1,1-1h5V25H30l-.7-.3A1,1,0,0,1,29,24V22a1,1,0,0,1,1-1h8a1,1,0,0,1,.7.3"/></g></g></svg>