<svg xmlns="http://www.w3.org/2000/svg" viewBox="0 0 40.95 28"><defs><style>.cls-1{fill:#fff;}</style></defs><title>Ресурс 20</title><g id="Слой_2" data-name="Слой 2"><g id="Layer_1" data-name="Layer 1"><path class="cls-1" d="M28.5,3l.4-.5a4.52,4.52,0,0,1,3.3-1.4,4.58,4.58,0,0,1,3.35,1.4A4.65,4.65,0,0,1,36.9,5.85a4.59,4.59,0,0,1-1.35,3.3,8.56,8.56,0,0,1,2.85,2A8.61,8.61,0,0,1,41,17.4v.05c0,1.3-.85,2.38-2.55,3.25A11,11,0,0,1,34.55,22v-.2a13.69,13.69,0,0,0-4.15-10v0l-2-1.7.3-.7.2-.1-.15-.1a8.87,8.87,0,0,0,.4-2.65A9.34,9.34,0,0,0,28.5,3m-2.6,8.2a12.71,12.71,0,0,1,2.85,2.15,11.53,11.53,0,0,1,3.45,8.4v.35q-.2,2.4-3.45,4.1A17.46,17.46,0,0,1,20.5,28a17.75,17.75,0,0,1-8.3-1.8c-2.13-1.13-3.27-2.5-3.4-4.1v-.35a11.6,11.6,0,0,1,3.4-8.4,14.22,14.22,0,0,1,2.85-2.15l.95-.45A6,6,0,0,1,14.25,6.4,6.13,6.13,0,0,1,16.1,1.9,5.82,5.82,0,0,1,20.5,0,6,6,0,0,1,25,1.9a6.2,6.2,0,0,1,1.8,4.5A6,6,0,0,1,25,10.75l.9.45M12.55,3a8.77,8.77,0,0,0-.65,3.4A8.36,8.36,0,0,0,12.3,9l-.15.15.25.15.25.65a14.45,14.45,0,0,0-2.05,1.7v0A13.69,13.69,0,0,0,6.45,21.75V22A11,11,0,0,1,2.6,20.7C.9,19.83,0,18.75,0,17.45V17.4a8.53,8.53,0,0,1,2.6-6.25,7.83,7.83,0,0,1,2.85-2A4.59,4.59,0,0,1,4.1,5.85,4.65,4.65,0,0,1,5.45,2.5,4.58,4.58,0,0,1,8.8,1.1a4.58,4.58,0,0,1,3.35,1.4l.4.5"/></g></g></svg>