<svg xmlns="http://www.w3.org/2000/svg" viewBox="0 0 32 32"><defs><style>.cls-1{fill:#fff;}</style></defs><title>Ресурс 78</title><g id="Слой_2" data-name="Слой 2"><g id="Layer_1" data-name="Layer 1"><path class="cls-1" d="M16,0A15.39,15.39,0,0,1,27.3,4.65,15.48,15.48,0,0,1,32,16a15.32,15.32,0,0,1-4.7,11.3A15.32,15.32,0,0,1,16,32,15.48,15.48,0,0,1,4.65,27.3,15.39,15.39,0,0,1,0,16,15.55,15.55,0,0,1,4.65,4.65,15.55,15.55,0,0,1,16,0m.45,17.6,2,.25a1.12,1.12,0,0,1,.7,1.2,1.25,1.25,0,0,1-.65,1.2l-1.8.3H14.8V17.6h1.65M14.8,12.5h1.3l1.8.25a1.23,1.23,0,0,1,.5,1.15,1.18,1.18,0,0,1-.55,1.15l-1.75.25H14.8V12.5M16.85,10H12V23h5.5a4.59,4.59,0,0,0,3.6-1.2,3.58,3.58,0,0,0,.9-2.4,3,3,0,0,0-.7-2,3.2,3.2,0,0,0-1.85-1.1l.45-.2.45-.35a2.63,2.63,0,0,0,.95-2.25,3.38,3.38,0,0,0-.85-2.25l-1.35-.85L16.85,10"/></g></g></svg>