<svg xmlns="http://www.w3.org/2000/svg" viewBox="0 0 29 29"><defs><style>.cls-1{fill:#fff;}</style></defs><title>Ресурс 68</title><g id="Слой_2" data-name="Слой 2"><g id="Layer_1" data-name="Layer 1"><path class="cls-1" d="M8,9H4V25H20V21h4v6a2,2,0,0,1-.55,1.45H23.4A2,2,0,0,1,22,29H2a2,2,0,0,1-1.45-.55A2,2,0,0,1,0,27V7.05A2,2,0,0,1,.55,5.6,2,2,0,0,1,2,5H8V9m4-9H28a1,1,0,0,1,.7.3L29,1V17l-.3.7L28,18l-.7-.3L24,14.4l-7.3,7.3L16,22l-.7-.3-8-8a1,1,0,0,1,0-1.4L14.6,5,11.3,1.7A1,1,0,0,1,11,1a1,1,0,0,1,.3-.7A1,1,0,0,1,12,0"/></g></g></svg>