<svg xmlns="http://www.w3.org/2000/svg" viewBox="0 0 43 24"><defs><style>.cls-1{fill:#fff;}</style></defs><title>Ресурс 90</title><g id="Слой_2" data-name="Слой 2"><g id="Layer_1" data-name="Layer 1"><path class="cls-1" d="M42.4.6A1.92,1.92,0,0,1,43,2V22a2,2,0,0,1-.6,1.45L42,23.8,41,24H2a2,2,0,0,1-1.45-.55A2,2,0,0,1,0,22V2.05A2,2,0,0,1,.55.6,2,2,0,0,1,2,0H41l1,.25L42.4.6m-21,11.85H20l.7-1.65.7,1.65m-.1-3.3h-1.2l-2.45,5.6H19l.5-1.2H21.8l.5,1.2h1.35l-2.4-5.6m4.3,3.8h.85l1.25,1.8h1.5l-1.4-2A1.67,1.67,0,0,0,28.8,11a1.7,1.7,0,0,0-.55-1.4,3,3,0,0,0-1.85-.45H24.3v5.6h1.25V13m0-2.7h.9l.85.15.25.6-.25.7-.85.2h-.9V10.25m6.9,0h1.6V9.15H29.6v1.1h1.6v4.5h1.25v-4.5m-23,.4.2-.4.5-.1a2.51,2.51,0,0,1,1.5.55l.65-.95-1-.55-1.1-.15a2.39,2.39,0,0,0-1.45.4,1.52,1.52,0,0,0-.55,1.25,1.37,1.37,0,0,0,.45,1.15,3,3,0,0,0,1.4.6l.85.3.2.4-.2.4-.55.15a2.63,2.63,0,0,1-1.65-.8L8,13.85a3.49,3.49,0,0,0,2.4,1l1.45-.45a1.43,1.43,0,0,0,.6-1.2A1.46,1.46,0,0,0,12,12l-1.25-.6-1-.35-.25-.4M13,9.15v1.1h1.6v4.5h1.25v-4.5h1.6V9.15H13"/></g></g></svg>