<svg xmlns="http://www.w3.org/2000/svg" viewBox="0 0 32 31.8"><defs><style>.cls-1{fill:#fff;}</style></defs><title>Ресурс 33</title><g id="Слой_2" data-name="Слой 2"><g id="Layer_1" data-name="Layer 1"><path class="cls-1" d="M18,3A9.7,9.7,0,0,1,21.2,9.1v1.6l-.1,1.15,9,8.85A5.43,5.43,0,0,1,32,24.4l.05.9A6.2,6.2,0,0,1,30.1,30l-.05.05a6.25,6.25,0,0,1-4.7,1.8A6.72,6.72,0,0,1,20.7,30V30l-5.95-5.9-.15-.4-2.95-2.8L9,20.7l.1.05a10.8,10.8,0,0,1-5.95-2.9V17.8A10,10,0,0,1,.05,9.6a8.84,8.84,0,0,1,.6-2.9A.8.8,0,0,1,1,6.25l.5-.1.4.25,5.7,5.7,1.1.6,1-.55V12.1l2.4-2.5a1.25,1.25,0,0,0,.4-1.5l-.45-.7L6.35,2l-.2-.4a.51.51,0,0,1,0-.5A.6.6,0,0,1,6.55.7,7.83,7.83,0,0,1,7.8.15h0L12.6,0a9.94,9.94,0,0,1,5.45,3H18m9.15,21a2.29,2.29,0,0,0-3.25,0V24l-.45.85-.05.1-.1.6a2.51,2.51,0,0,0,.6,1.6,2.58,2.58,0,0,0,1.65.6,2.27,2.27,0,0,0,1.6-.6,2.24,2.24,0,0,0,.75-1.6l-.1-.65-.6-.9-.05-.05"/></g></g></svg>