<svg xmlns="http://www.w3.org/2000/svg" viewBox="0 0 38 24"><defs><style>.cls-1{fill:#fff;}</style></defs><title>Ресурс 88</title><g id="Слой_2" data-name="Слой 2"><g id="Layer_1" data-name="Layer 1"><path class="cls-1" d="M0,5Q0,0,5,0H38V24H0V5M11,6.8v9.8h6.35v-2H13.2V6.8H11m11-.2a3.6,3.6,0,0,0-2.1.55,6,6,0,0,0-1.5,1.6L20.15,9.8c.53-.9,1.12-1.35,1.75-1.35a1,1,0,0,1,.8.35,1,1,0,0,1,.35.8,1.8,1.8,0,0,1-.4,1.05l-1.2,1.4L18.55,15V16.6h6.9v-2H21.6l1.75-1.85,1.45-1.75.35-1.45a2.73,2.73,0,0,0-.95-2.2A3.33,3.33,0,0,0,22,6.6"/></g></g></svg>