<svg xmlns="http://www.w3.org/2000/svg" viewBox="0 0 32 32"><defs><style>.cls-1{fill:#fff;}</style></defs><title>Ресурс 77</title><g id="Слой_2" data-name="Слой 2"><g id="Layer_1" data-name="Layer 1"><path class="cls-1" d="M17.35,9H14.6L9,22h3.05l1.2-2.8H18.7L19.9,22H23L17.35,9m10-4.35A15.48,15.48,0,0,1,32,16a15.32,15.32,0,0,1-4.7,11.3A15.32,15.32,0,0,1,16,32,15.48,15.48,0,0,1,4.65,27.3,15.39,15.39,0,0,1,0,16,15.55,15.55,0,0,1,4.65,4.65,15.55,15.55,0,0,1,16,0,15.39,15.39,0,0,1,27.3,4.65m-12.95,12L16,12.85l1.6,3.85H14.35"/></g></g></svg>