<svg xmlns="http://www.w3.org/2000/svg" viewBox="0 0 32 32"><defs><style>.cls-1{fill:#fff;}</style></defs><title>Ресурс 35</title><g id="Слой_2" data-name="Слой 2"><g id="Layer_1" data-name="Layer 1"><path class="cls-1" d="M16,6A9.78,9.78,0,0,0,8.9,8.9,9.67,9.67,0,0,0,6,16a9.56,9.56,0,0,0,3,7.1A9.67,9.67,0,0,0,16,26.05a9.67,9.67,0,0,0,7.1-2.95h0a9.66,9.66,0,0,0,2.9-7.1,9.78,9.78,0,0,0-2.9-7.1A9.94,9.94,0,0,0,16,6m0,4.35A5.63,5.63,0,0,1,21.65,16,5.44,5.44,0,0,1,20,20a5.37,5.37,0,0,1-4,1.7A5.44,5.44,0,0,1,12,20a5.52,5.52,0,0,1-1.6-4A5.55,5.55,0,0,1,16,10.35M4.7,4.65A15.48,15.48,0,0,1,16,0,15.41,15.41,0,0,1,27.3,4.7,15.41,15.41,0,0,1,32,16a15.48,15.48,0,0,1-4.7,11.35A15.48,15.48,0,0,1,16,32,15.48,15.48,0,0,1,4.7,27.35,15.48,15.48,0,0,1,0,16,15.48,15.48,0,0,1,4.65,4.7h0v0"/></g></g></svg>