<svg xmlns="http://www.w3.org/2000/svg" viewBox="0 0 20 24"><defs><style>.cls-1{fill:#fff;}</style></defs><title>Ресурс 58</title><g id="Слой_2" data-name="Слой 2"><g id="Layer_1" data-name="Layer 1"><path class="cls-1" d="M19.4.6A1.92,1.92,0,0,1,20,2V22a2,2,0,0,1-.6,1.45A2,2,0,0,1,18,24H14a1.89,1.89,0,0,1-2-2V2.05A2,2,0,0,1,12.55.6,2,2,0,0,1,14,0h4a1.92,1.92,0,0,1,1.4.6M2,24a2,2,0,0,1-1.45-.55A2,2,0,0,1,0,22V10.05A2,2,0,0,1,.55,8.6,2,2,0,0,1,2,8H6a1.92,1.92,0,0,1,1.4.6A1.92,1.92,0,0,1,8,10V22a2,2,0,0,1-.6,1.45A2,2,0,0,1,6,24H2"/></g></g></svg>