<svg xmlns="http://www.w3.org/2000/svg" viewBox="0 0 38 24"><defs><style>.cls-1{fill:#fff;}</style></defs><title>Ресурс 87</title><g id="Слой_2" data-name="Слой 2"><g id="Layer_1" data-name="Layer 1"><path class="cls-1" d="M38,5V24H0V0H33q5,0,5,5M16,10.05a1.63,1.63,0,0,1-.4,1.2l-1.5.35H12.5V8.7h1.6a2.67,2.67,0,0,1,1.5.3,1.22,1.22,0,0,1,.4,1.05M17.25,7.6A5.12,5.12,0,0,0,14,6.8H10.3v9.8h2.2V13.5H14l2.15,3.1h2.7L16.4,13.1a2.91,2.91,0,0,0,1.85-3,2.86,2.86,0,0,0-1-2.45M21.6,8.7v7.9h2.1V6.8H19.75V8.7H21.6"/></g></g></svg>