<svg xmlns="http://www.w3.org/2000/svg" viewBox="0 0 24 33.95"><defs><style>.cls-1{fill:#fff;}</style></defs><title>Ресурс 75</title><g id="Слой_2" data-name="Слой 2"><g id="Layer_1" data-name="Layer 1"><path class="cls-1" d="M24,12a11.52,11.52,0,0,1-3.5,8.45A12.07,12.07,0,0,1,17,23v10.1l-.25.65L16.1,34l-.65-.2L12,30.3,8.55,33.75,7.9,34l-.65-.25L7,33.05V23a13.29,13.29,0,0,1-3.6-2.6A11.67,11.67,0,0,1,0,12,11.7,11.7,0,0,1,12,0a11.66,11.66,0,0,1,8.5,3.45A11.59,11.59,0,0,1,24,12M12,6a5.89,5.89,0,0,0-6,6,5.84,5.84,0,0,0,1.7,4.2A5.77,5.77,0,0,0,12,18a5.71,5.71,0,0,0,4.25-1.8A5.73,5.73,0,0,0,18,12a5.77,5.77,0,0,0-1.75-4.25A5.77,5.77,0,0,0,12,6"/></g></g></svg>