<svg xmlns="http://www.w3.org/2000/svg" viewBox="0 0 32 32"><defs><style>.cls-1{fill:#fff;}</style></defs><title>Ресурс 80</title><g id="Слой_2" data-name="Слой 2"><g id="Layer_1" data-name="Layer 1"><path class="cls-1" d="M13.6,10.1H10.4l4.6,8V23.4H18V18.15l4.6-8h-3.2l-2.9,5-2.85-5M16,0A15.39,15.39,0,0,1,27.3,4.65,15.48,15.48,0,0,1,32,16a15.32,15.32,0,0,1-4.7,11.3A15.32,15.32,0,0,1,16,32,15.48,15.48,0,0,1,4.65,27.3,15.39,15.39,0,0,1,0,16,15.55,15.55,0,0,1,4.65,4.65,15.55,15.55,0,0,1,16,0"/></g></g></svg>