<svg xmlns="http://www.w3.org/2000/svg" viewBox="0 0 32 32"><defs><style>.cls-1{fill:#fff;}</style></defs><title>Ресурс 83</title><g id="Слой_2" data-name="Слой 2"><g id="Layer_1" data-name="Layer 1"><path class="cls-1" d="M19.4,12.15V10.1H11.3v2.55h4.15l-2.55,3v2.2l1.75-.4a3,3,0,0,1,1.85.5,1.71,1.71,0,0,1,.1,2.6,2.62,2.62,0,0,1-1.5.4,6.17,6.17,0,0,1-3.35-1.3L10.55,22A7.84,7.84,0,0,0,15,23.55a5.32,5.32,0,0,0,3.6-1.2,4,4,0,0,0,1.45-3.25,3.84,3.84,0,0,0-.9-2.5,4,4,0,0,0-2.45-1.35l2.7-3.1m11.35-2.5A15.92,15.92,0,0,1,32,16a15.92,15.92,0,0,1-1.25,6.35A15.4,15.4,0,0,1,27.3,27.3,15.32,15.32,0,0,1,16,32,15.48,15.48,0,0,1,4.65,27.3,15.39,15.39,0,0,1,0,16,15.55,15.55,0,0,1,4.65,4.65,15.55,15.55,0,0,1,16,0,15.39,15.39,0,0,1,27.3,4.65a15.93,15.93,0,0,1,3.45,5"/></g></g></svg>