<svg xmlns="http://www.w3.org/2000/svg" viewBox="0 0 36 32"><defs><style>.cls-1{fill:#fff;}</style></defs><title>Ресурс 7</title><g id="Слой_2" data-name="Слой 2"><g id="Layer_1" data-name="Layer 1"><path class="cls-1" d="M36,6a2,2,0,0,1-.6,1.45A2,2,0,0,1,34,8H2A2,2,0,0,1,.55,7.45,2,2,0,0,1,0,6V2.05A2,2,0,0,1,.55.6,2,2,0,0,1,2,0H34a1.92,1.92,0,0,1,1.4.6A1.92,1.92,0,0,1,36,2V6m-.6,6.6A1.92,1.92,0,0,1,36,14v4a2,2,0,0,1-.6,1.45A2,2,0,0,1,34,20H2a2,2,0,0,1-1.45-.55A2,2,0,0,1,0,18V14.05A2,2,0,0,1,.55,12.6,2,2,0,0,1,2,12H34a1.92,1.92,0,0,1,1.4.6M.55,31.45A2,2,0,0,1,0,30V26.05A2,2,0,0,1,.55,24.6,2,2,0,0,1,2,24H34a2.05,2.05,0,0,1,2,2v4a2,2,0,0,1-.6,1.45A2,2,0,0,1,34,32H2a2,2,0,0,1-1.45-.55"/></g></g></svg>