<svg xmlns="http://www.w3.org/2000/svg" viewBox="0 0 32 32"><defs><style>.cls-1{fill:#fff;}</style></defs><title>Ресурс 60</title><g id="Слой_2" data-name="Слой 2"><g id="Layer_1" data-name="Layer 1"><path class="cls-1" d="M28.9,3H25V8H28.9V3M32,2V30a2,2,0,0,1-.6,1.45A2,2,0,0,1,30,32H2a2,2,0,0,1-1.45-.55A2,2,0,0,1,0,30V2.05A2,2,0,0,1,.55.6,2,2,0,0,1,2,0H30a1.92,1.92,0,0,1,1.4.6A1.92,1.92,0,0,1,32,2M10,3V15H22V3H10M25,29H28.9V24H25v5m0-11H28.9V13H25v5M22,29V18H10V29H22M6.9,8V3H3V8h4M3,24v5h4V24H3m0-6h4V13H3v5"/></g></g></svg>