<svg xmlns="http://www.w3.org/2000/svg" viewBox="0 0 32 32"><defs><style>.cls-1{fill:#fff;}</style></defs><title>Ресурс 34</title><g id="Слой_2" data-name="Слой 2"><g id="Layer_1" data-name="Layer 1"><path class="cls-1" d="M30.8,9.8A15.83,15.83,0,0,1,32,16a1.2,1.2,0,0,1-1.2,1.2H27.5l-.4,2.05,3.1,1.3.65.65a1.09,1.09,0,0,1,0,.9,15.8,15.8,0,0,1-3.55,5.25l-.8.3-.85-.3L23.3,25l-1.75,1.2,1.3,3.05a1.09,1.09,0,0,1,0,.9l-.65.65A15.83,15.83,0,0,1,16,32a1.2,1.2,0,0,1-1.2-1.2V27.5l-2.05-.35L11.5,30.2l-.65.65a1.09,1.09,0,0,1-.9,0,15.49,15.49,0,0,1-5.25-3.5,1.21,1.21,0,0,1,0-1.7L7.05,23.3l-1.2-1.75-3.1,1.3a1.09,1.09,0,0,1-.9,0L1.2,22.2A15.83,15.83,0,0,1,0,16a1.17,1.17,0,0,1,.35-.85,1.17,1.17,0,0,1,.85-.35H4.5l.4-2.05L1.8,11.5l-.65-.65a1.09,1.09,0,0,1,0-.9A15.22,15.22,0,0,1,4.7,4.7a1.11,1.11,0,0,1,.8-.35,1.17,1.17,0,0,1,.85.35L8.7,7.05a11.35,11.35,0,0,1,1.75-1.2l-1.3-3.1a1.09,1.09,0,0,1,0-.9A1.22,1.22,0,0,1,9.8,1.2,15.83,15.83,0,0,1,16,0a1.17,1.17,0,0,1,.85.35,1.17,1.17,0,0,1,.35.85V4.5l2.05.4,1.3-3.1a1,1,0,0,1,.6-.65,1.21,1.21,0,0,1,1,0A15.19,15.19,0,0,1,25.65,3.2L27.3,4.7a1.17,1.17,0,0,1,.35.85l-.35.8L25,8.7l1.15,1.75,3.1-1.3a1.09,1.09,0,0,1,.9,0l.65.65M16,8.25A7.68,7.68,0,0,0,8.25,16,7.68,7.68,0,0,0,16,23.75,7.68,7.68,0,0,0,23.75,16,7.68,7.68,0,0,0,16,8.25m0,3.9a3.85,3.85,0,0,1,2.75,1.1,3.86,3.86,0,0,1,0,5.5,3.86,3.86,0,0,1-5.5,0A3.85,3.85,0,0,1,16,12.15"/></g></g></svg>