<svg xmlns="http://www.w3.org/2000/svg" viewBox="0 0 32 32"><defs><style>.cls-1{fill:#fff;}</style></defs><title>Ресурс 13</title><g id="Слой_2" data-name="Слой 2"><g id="Layer_1" data-name="Layer 1"><path class="cls-1" d="M2,12H12V2.05A2,2,0,0,1,12.55.6,2,2,0,0,1,14,0h4a1.92,1.92,0,0,1,1.4.6A1.92,1.92,0,0,1,20,2V12H30a2.05,2.05,0,0,1,2,2v4a2,2,0,0,1-.6,1.45A2,2,0,0,1,30,20H20V30a2,2,0,0,1-.6,1.45A2,2,0,0,1,18,32H14a1.89,1.89,0,0,1-2-2V20H2a2,2,0,0,1-1.45-.55A2,2,0,0,1,0,18V14.05A2,2,0,0,1,.55,12.6,2,2,0,0,1,2,12"/></g></g></svg>