<svg xmlns="http://www.w3.org/2000/svg" viewBox="0 0 18 34"><defs><style>.cls-1{fill:#fff;}</style></defs><title>Ресурс 50</title><g id="Слой_2" data-name="Слой 2"><g id="Layer_1" data-name="Layer 1"><path class="cls-1" d="M5.45,8.55A4.92,4.92,0,0,1,4,5,4.76,4.76,0,0,1,5.45,1.5,4.85,4.85,0,0,1,9,0a4.75,4.75,0,0,1,3.55,1.5H12.5A4.8,4.8,0,0,1,14,5a4.82,4.82,0,0,1-1.5,3.6v0A4.76,4.76,0,0,1,9,10,4.82,4.82,0,0,1,5.45,8.55M11,12a2.88,2.88,0,0,1,2.1.9A2.88,2.88,0,0,1,14,15V28h1a3.08,3.08,0,0,1,3,3v2l-.3.7L17,34H1a1,1,0,0,1-.7-.3A1,1,0,0,1,0,33V31.05A2.85,2.85,0,0,1,.85,29V28.9A2.94,2.94,0,0,1,3,28H4V18H1a1,1,0,0,1-.7-.3A1,1,0,0,1,0,17V13a1,1,0,0,1,.3-.7A1,1,0,0,1,1,12H11"/></g></g></svg>