<svg xmlns="http://www.w3.org/2000/svg" viewBox="0 0 8 30"><defs><style>.cls-1{fill:#fff;}</style></defs><title>Ресурс 44</title><g id="Слой_2" data-name="Слой 2"><g id="Layer_1" data-name="Layer 1"><path class="cls-1" d="M7.4.6A1.92,1.92,0,0,1,8,2V17a2,2,0,0,1-.6,1.45A2,2,0,0,1,6,19H2a2,2,0,0,1-1.45-.55A2,2,0,0,1,0,17V2.05A2,2,0,0,1,.55.6,2,2,0,0,1,2,0H6A1.92,1.92,0,0,1,7.4.6M0,26a3.8,3.8,0,0,1,1.15-2.8A3.89,3.89,0,0,1,4,22a3.8,3.8,0,0,1,2.85,1.2h0A3.83,3.83,0,0,1,8,26a4,4,0,0,1-1.2,2.9v0A3.8,3.8,0,0,1,4,30a3.87,3.87,0,0,1-2.85-1.15A4,4,0,0,1,0,26"/></g></g></svg>