<svg xmlns="http://www.w3.org/2000/svg" viewBox="0 0 30.01 33.3"><defs><style>.cls-1{fill:#fff;}</style></defs><title>Ресурс 76</title><g id="Слой_2" data-name="Слой 2"><g id="Layer_1" data-name="Layer 1"><path class="cls-1" d="M21.06,12a5.77,5.77,0,0,0-1.75-4.25A5.77,5.77,0,0,0,15.06,6a5.89,5.89,0,0,0-6,6,5.84,5.84,0,0,0,1.7,4.2,5.77,5.77,0,0,0,4.3,1.8,5.71,5.71,0,0,0,4.25-1.8A5.73,5.73,0,0,0,21.06,12m6-.05a11.62,11.62,0,0,1-2.3,7.1l0,.05,5.05,8.8.15.65-.5.55-.65.15L24.16,28l-1.25,4.7-.5.5-.65.1-.55-.4-5.05-8.8L16.11,24l-1,.05L14,24l-.1.15-5,8.8-.55.4-.65-.1-.5-.5L5.86,28l-4.7,1.25L.51,29.1,0,28.55a.94.94,0,0,1,.15-.65l5.05-8.8.1-.1a11.55,11.55,0,0,1-2.25-7A11.7,11.7,0,0,1,15.06,0a11.66,11.66,0,0,1,8.5,3.45,11.59,11.59,0,0,1,3.5,8.5"/></g></g></svg>