<svg xmlns="http://www.w3.org/2000/svg" viewBox="0 0 30 34.68"><defs><style>.cls-1{fill:#fff;}</style></defs><title>Ресурс 71</title><g id="Слой_2" data-name="Слой 2"><g id="Layer_1" data-name="Layer 1"><path class="cls-1" d="M17.5,11.23l-1.8,2.15,2.8,10.45H27a3.08,3.08,0,0,1,3,3v6.85l-.3.7-.7.3H1l-.7-.3a1,1,0,0,1-.3-.7v-6.8a2.82,2.82,0,0,1,.85-2.1v-.05A2.94,2.94,0,0,1,3,23.83h9.3l-2.4-8.9A8.1,8.1,0,0,1,7.2,14,7.22,7.22,0,0,1,3.75,9.43a7.45,7.45,0,0,1,.7-5.7A7.58,7.58,0,0,1,9.1.28a7.23,7.23,0,0,1,5.65.7,7.33,7.33,0,0,1,3.5,4.55,7.3,7.3,0,0,1-.75,5.7"/></g></g></svg>