<svg xmlns="http://www.w3.org/2000/svg" viewBox="0 0 25.57 38.56"><defs><style>.cls-1{fill:#fff;}</style></defs><title>Ресурс 43</title><g id="Слой_2" data-name="Слой 2"><g id="Layer_1" data-name="Layer 1"><path class="cls-1" d="M.22,7.31a1.8,1.8,0,0,1,1.2-1L6.27,5l-.2-.9a2,2,0,0,1,.15-1.55,1.84,1.84,0,0,1,1.25-.95L13.27.06a1.89,1.89,0,0,1,1.5.25,1.66,1.66,0,0,1,.9,1.15l.25,1,4.85-1.25a1.84,1.84,0,0,1,1.55.2,1.83,1.83,0,0,1,.9,1.2l1.5,5.7L1.57,14.46.07,8.81a2.1,2.1,0,0,1,.15-1.5M1.57,36.56V16.46h24v20.1a2,2,0,0,1-2,2h-20A2.07,2.07,0,0,1,2.12,38a2.09,2.09,0,0,1-.55-1.45"/></g></g></svg>