<svg xmlns="http://www.w3.org/2000/svg" viewBox="0 0 32 32"><defs><style>.cls-1{fill:#fff;}</style></defs><title>Ресурс 8</title><g id="Слой_2" data-name="Слой 2"><g id="Layer_1" data-name="Layer 1"><path class="cls-1" d="M32,2V30a2,2,0,0,1-.6,1.45A2,2,0,0,1,30,32H26a1.89,1.89,0,0,1-2-2V2.05A2,2,0,0,1,24.55.6,2,2,0,0,1,26,0h4a1.92,1.92,0,0,1,1.4.6A1.92,1.92,0,0,1,32,2M12.55.6A2,2,0,0,1,14,0h4a1.92,1.92,0,0,1,1.4.6A1.92,1.92,0,0,1,20,2V30a2,2,0,0,1-.6,1.45A2,2,0,0,1,18,32H14a1.89,1.89,0,0,1-2-2V2.05A2,2,0,0,1,12.55.6M.55.6A2,2,0,0,1,2,0H6A1.92,1.92,0,0,1,7.4.6,1.92,1.92,0,0,1,8,2V30a2,2,0,0,1-.6,1.45A2,2,0,0,1,6,32H2a2,2,0,0,1-1.45-.55A2,2,0,0,1,0,30V2.05A2,2,0,0,1,.55.6"/></g></g></svg>