<svg xmlns="http://www.w3.org/2000/svg" viewBox="0 0 28 32"><defs><style>.cls-1{fill:#fff;}</style></defs><title>Ресурс 18</title><g id="Слой_2" data-name="Слой 2"><g id="Layer_1" data-name="Layer 1"><path class="cls-1" d="M19.35,12.25a15,15,0,0,1,4.55,3,12.83,12.83,0,0,1,4.1,9.6q0,3-4.1,5A21.31,21.31,0,0,1,14,32a21.48,21.48,0,0,1-9.9-2.1q-4-2.05-4.1-5a12.83,12.83,0,0,1,4.1-9.6,15,15,0,0,1,4.55-3,6.83,6.83,0,0,1-2.1-5,6.78,6.78,0,0,1,2.2-5.1A7.14,7.14,0,0,1,14,0a7.21,7.21,0,0,1,5.3,2.15,6.78,6.78,0,0,1,2.2,5.1,6.77,6.77,0,0,1-2.15,5"/></g></g></svg>