<svg xmlns="http://www.w3.org/2000/svg" viewBox="0 0 32 32"><defs><style>.cls-1{fill:#fff;}</style></defs><title>Ресурс 79</title><g id="Слой_2" data-name="Слой 2"><g id="Layer_1" data-name="Layer 1"><path class="cls-1" d="M27.3,4.65A15.48,15.48,0,0,1,32,16a15.32,15.32,0,0,1-4.7,11.3A15.32,15.32,0,0,1,16,32,15.48,15.48,0,0,1,4.65,27.3,15.39,15.39,0,0,1,0,16,15.55,15.55,0,0,1,4.65,4.65,15.55,15.55,0,0,1,16,0,15.39,15.39,0,0,1,27.3,4.65M22.65,10h-3.6L16.5,13.85,13.9,10H10.3l4.25,6.35L10,23h3.6l2.9-4.25L19.35,23H23l-4.5-6.7L22.65,10"/></g></g></svg>