<svg xmlns="http://www.w3.org/2000/svg" viewBox="0 0 33.2 33.6"><defs><style>.cls-1{fill:#fff;}</style></defs><title>Ресурс 56</title><g id="Слой_2" data-name="Слой 2"><g id="Layer_1" data-name="Layer 1"><path class="cls-1" d="M27.5,4.45l.85.75v0A16,16,0,0,1,33.2,17a15.85,15.85,0,0,1-4.85,11.7l-.05.05A15.85,15.85,0,0,1,16.6,33.6,16,16,0,0,1,4.85,28.75,16,16,0,0,1,0,17,16,16,0,0,1,4.65,5.45l.2-.25.8-.7a1,1,0,0,1,.75-.2.77.77,0,0,1,.65.35L9.6,7.7l.25.7-.35.7-.4.35L9,9.6A10.35,10.35,0,0,0,6,17a10.21,10.21,0,0,0,3.1,7.5,10.21,10.21,0,0,0,7.5,3.1,10.17,10.17,0,0,0,7.35-3l.15-.15.15-.15A10.17,10.17,0,0,0,27.2,17a10.21,10.21,0,0,0-3.1-7.5h-.05l-.45-.45-.35-.7a1,1,0,0,1,.25-.7L26.1,4.6a.82.82,0,0,1,.7-.35l.7.2M19.25.3l.3.7V18l-.3.7-.7.3h-4l-.7-.3a1,1,0,0,1-.3-.7V1a1,1,0,0,1,.3-.7,1,1,0,0,1,.7-.3h4a1,1,0,0,1,.7.3"/></g></g></svg>