<svg xmlns="http://www.w3.org/2000/svg" viewBox="0 0 38 24"><defs><style>.cls-1{fill:#fff;}</style></defs><title>Ресурс 89</title><g id="Слой_2" data-name="Слой 2"><g id="Layer_1" data-name="Layer 1"><path class="cls-1" d="M24.35,7.4a3.33,3.33,0,0,0-2.2-.8,3.6,3.6,0,0,0-2.1.55,6,6,0,0,0-1.5,1.6L20.3,9.8c.53-.9,1.12-1.35,1.75-1.35a1,1,0,0,1,.8.35,1,1,0,0,1,.35.8,1.8,1.8,0,0,1-.4,1.05l-1.2,1.4L18.7,15V16.6h6.9v-2H21.75L23.5,12.8,25,11.05,25.3,9.6a2.73,2.73,0,0,0-.95-2.2M38,5V24H0V0H33q5,0,5,5M12.7,8.7l1.5.3a1.22,1.22,0,0,1,.4,1.05,1.63,1.63,0,0,1-.4,1.2,2.38,2.38,0,0,1-1.5.35H11.1V8.7h1.6m3.15-1.1a5.12,5.12,0,0,0-3.25-.8H8.9v9.8h2.2V13.5h1.5l2.15,3.1h2.7L15,13.1a2.91,2.91,0,0,0,1.85-3,2.86,2.86,0,0,0-1-2.45"/></g></g></svg>