<svg xmlns="http://www.w3.org/2000/svg" viewBox="0 0 28 32"><defs><style>.cls-1{fill:#fff;}</style></defs><title>Ресурс 9</title><g id="Слой_2" data-name="Слой 2"><g id="Layer_1" data-name="Layer 1"><path class="cls-1" d="M28,2V30a2,2,0,0,1-.6,1.45A2,2,0,0,1,26,32H18a1.89,1.89,0,0,1-2-2V2.05A2,2,0,0,1,16.55.6,2,2,0,0,1,18,0h8a1.92,1.92,0,0,1,1.4.6A1.92,1.92,0,0,1,28,2M11.4.6A1.92,1.92,0,0,1,12,2V30a2,2,0,0,1-.6,1.45A2,2,0,0,1,10,32H2a2,2,0,0,1-1.45-.55A2,2,0,0,1,0,30V2.05A2,2,0,0,1,.55.6,2,2,0,0,1,2,0h8a1.92,1.92,0,0,1,1.4.6"/></g></g></svg>