<svg xmlns="http://www.w3.org/2000/svg" viewBox="0 0 31.95 32"><defs><style>.cls-1{fill:#fff;}</style></defs><title>Ресурс 52</title><g id="Слой_2" data-name="Слой 2"><g id="Layer_1" data-name="Layer 1"><path class="cls-1" d="M24.8,10.05l2.3-3.3,1.5,1.3,0,0a11.06,11.06,0,0,1,3.3,8,11,11,0,0,1-3.3,8.05l-.1.1L27.1,25.55l-2.3-3.3.9-.75.05-.05a7.21,7.21,0,0,0,2.2-5.3,7.16,7.16,0,0,0-2.2-5.25l-.05-.1-.9-.75M18,0a1.92,1.92,0,0,1,1.4.6A1.92,1.92,0,0,1,20,2V30a2,2,0,0,1-.6,1.45A2,2,0,0,1,18,32H16L4,20H0V12H4L16,0h2"/></g></g></svg>