<svg xmlns="http://www.w3.org/2000/svg" viewBox="0 0 29.4 31.05"><defs><style>.cls-1{fill:#fff;}</style></defs><title>Ресурс 74</title><g id="Слой_2" data-name="Слой 2"><g id="Layer_1" data-name="Layer 1"><path class="cls-1" d="M13.64,3a3.06,3.06,0,0,1-.85,2.15l-7,7A3,3,0,0,1,3.64,13a2.82,2.82,0,0,1-2.1-.85A2.94,2.94,0,0,1,.64,10a2.78,2.78,0,0,1,.9-2.1l7-7a2.75,2.75,0,0,1,2.1-.9,2.94,2.94,0,0,1,2.15.9A2.89,2.89,0,0,1,13.64,3M20.79.9l7,7a2.89,2.89,0,0,1,.85,2.1,3.06,3.06,0,0,1-.85,2.15,3,3,0,0,1-2.15.85,2.82,2.82,0,0,1-2.1-.85l-7-7A2.94,2.94,0,0,1,15.64,3a2.78,2.78,0,0,1,.9-2.1,2.75,2.75,0,0,1,2.1-.9,2.94,2.94,0,0,1,2.15.9M3.09,30.7a1.13,1.13,0,0,1-.6-.85L0,16.85a1.41,1.41,0,0,1,.3-1.25,1.71,1.71,0,0,1,1.35-.55h26a1.68,1.68,0,0,1,1.3.55,1.44,1.44,0,0,1,.4,1.2L26.94,29.85l-.65.85a2.24,2.24,0,0,1-1.2.35H4.29l-1.2-.35"/></g></g></svg>