<svg xmlns="http://www.w3.org/2000/svg" viewBox="0 0 26.99 30.99"><defs><style>.cls-1{fill:#fff;}</style></defs><title>Ресурс 40</title><g id="Слой_2" data-name="Слой 2"><g id="Layer_1" data-name="Layer 1"><path class="cls-1" d="M27,2.9V18.35a7.32,7.32,0,0,1-2,4.5h-.1a6.21,6.21,0,0,1-4.25,2.2h-.05a4.89,4.89,0,0,1-4.25-1.55,5,5,0,0,1-1.4-4.3,7,7,0,0,1,2-4.2,6.65,6.65,0,0,1,3.7-2H22V8H12V25q.11,1.91-2.05,3.8l0,.15a6.81,6.81,0,0,1-4.15,2h0A4.92,4.92,0,0,1,1.44,29.5,4.77,4.77,0,0,1,0,25.3,7.08,7.08,0,0,1,2,21l.1-.05a7.31,7.31,0,0,1,3.6-2h0L8,19V3C7.93.94,8.74-.06,10.44,0H24c2,0,3,1,3,2.9"/></g></g></svg>