<svg xmlns="http://www.w3.org/2000/svg" viewBox="0 0 33.04 30.97"><defs><style>.cls-1{fill:#fff;}</style></defs><title>Ресурс 46</title><g id="Слой_2" data-name="Слой 2"><g id="Layer_1" data-name="Layer 1"><path class="cls-1" d="M15,8.27l-.4.3A2.11,2.11,0,0,0,14,10v9a2.09,2.09,0,0,0,.55,1.45l.4.3L16,21H17a2,2,0,0,0,2-2V10a2.05,2.05,0,0,0-2-2H16a1.78,1.78,0,0,0-1,.3m.6-8a2.22,2.22,0,0,1,2,0h0a2.5,2.5,0,0,1,1.3,1.3l13.75,24.7a4.08,4.08,0,0,1,.4,2v.05a3,3,0,0,1-.9,1.86h0a2.52,2.52,0,0,1-1.9.84H2.78a2.38,2.38,0,0,1-1.9-.9A3.29,3.29,0,0,1,0,28.27a3.44,3.44,0,0,1,.35-2.05h0L14.18,1.52V1.47A2.85,2.85,0,0,1,15.53.22h.05m1,22.75a2.45,2.45,0,0,0-1.8.75,2.41,2.41,0,0,0-.7,1.75,2.51,2.51,0,0,0,.7,1.75,2.45,2.45,0,0,0,1.8.75,2.28,2.28,0,0,0,1.75-.75v.05a2.45,2.45,0,0,0,.75-1.8,2.41,2.41,0,0,0-.75-1.75h0a2.33,2.33,0,0,0-1.8-.75"/></g></g></svg>