<svg xmlns="http://www.w3.org/2000/svg" viewBox="0 0 20 32"><defs><style>.cls-1{fill:#fff;}</style></defs><title>Ресурс 45</title><g id="Слой_2" data-name="Слой 2"><g id="Layer_1" data-name="Layer 1"><path class="cls-1" d="M8.35,10.85a1.26,1.26,0,0,1-.85.3H1.15L.55,11,.1,10.5,0,9.75A10.38,10.38,0,0,1,3.25,2.6,10,10,0,0,1,10.3,0a10.37,10.37,0,0,1,7,2.3A8.53,8.53,0,0,1,20,9a6.17,6.17,0,0,1-.55,3l-.55,1.05H19l-.9,1.35-.05,0-.8.9v.05l-1.85,1.8-.75.85h-.3v.05h.3l-.2.25-.1.85v.7l-.35.8-.9.3H7l-.85-.3a1.31,1.31,0,0,1-.4-.8V17.1h.15a4,4,0,0,1,.4-1.45,11.91,11.91,0,0,1,2-2.6l2.7-2.7.25-1.1-.35-1.1a.72.72,0,0,0-.7-.3,1,1,0,0,0-.8.4V8.2a4.09,4.09,0,0,0-.55,1.85l-.45.8M10.4,23a4.62,4.62,0,0,1,3.25,1.25A4.27,4.27,0,0,1,15,27.45a4.42,4.42,0,0,1-1.35,3.25A4.5,4.5,0,0,1,10.4,32a4.22,4.22,0,0,1-3.1-1.3A4.4,4.4,0,0,1,6,27.45,4.35,4.35,0,0,1,10.4,23"/></g></g></svg>