<svg xmlns="http://www.w3.org/2000/svg" viewBox="0 0 40 27"><defs><style>.cls-1{fill:#fff;}</style></defs><title>Ресурс 63</title><g id="Слой_2" data-name="Слой 2"><g id="Layer_1" data-name="Layer 1"><path class="cls-1" d="M26.55,15.6A2,2,0,0,0,26,17a1.88,1.88,0,0,0,.55,1.4A2,2,0,0,0,28,19a1.92,1.92,0,0,0,1.4-.6A1.82,1.82,0,0,0,30,17a2.05,2.05,0,0,0-2-2,2,2,0,0,0-1.45.6M35,15a2,2,0,0,0-1.45.6A2,2,0,0,0,33,17a1.88,1.88,0,0,0,.55,1.4A2,2,0,0,0,35,19a1.92,1.92,0,0,0,1.4-.6A1.82,1.82,0,0,0,37,17a2.05,2.05,0,0,0-2-2M11,11H7V15H3v4H7v4h4V19H15V15H11V11M18.55.6,19,.25V0h1a1.92,1.92,0,0,1,1.4.6A1.92,1.92,0,0,1,22,2V7H38a2.05,2.05,0,0,1,2,2V25a2,2,0,0,1-.6,1.45A2,2,0,0,1,38,27H2a2,2,0,0,1-1.45-.55A2,2,0,0,1,0,25V9.05A2,2,0,0,1,.55,7.6,2,2,0,0,1,2,7H18V2.05A2,2,0,0,1,18.55.6"/></g></g></svg>