<svg xmlns="http://www.w3.org/2000/svg" viewBox="0 0 32.73 30.05"><defs><style>.cls-1{fill:#fff;}</style></defs><title>Ресурс 73</title><g id="Слой_2" data-name="Слой 2"><g id="Layer_1" data-name="Layer 1"><path class="cls-1" d="M31.75,1.2l.05.05a3.44,3.44,0,0,1,.9,2.85v.1L30.2,17.45l-.05.05a3.06,3.06,0,0,1-1.5,2.05l-.15.05-2,.45h-15a3.84,3.84,0,0,1-2.05-.5h0A3,3,0,0,1,7.85,17.5v-.05L5.55,5H1a1,1,0,0,1-.7-.3A1,1,0,0,1,0,4V1A1,1,0,0,1,.3.3,1,1,0,0,1,1,0H13l.3.05H29A3.63,3.63,0,0,1,31.75,1.2M8,26.05a3.93,3.93,0,0,1,4-4,3.8,3.8,0,0,1,2.8,1.15A3.89,3.89,0,0,1,16,26.05a3.74,3.74,0,0,1-1.2,2.8,3.74,3.74,0,0,1-2.8,1.2,3.89,3.89,0,0,1-2.85-1.2A3.8,3.8,0,0,1,8,26.05m14,0a3.93,3.93,0,0,1,4-4,3.8,3.8,0,0,1,2.8,1.15A3.89,3.89,0,0,1,30,26.05a4.1,4.1,0,0,1-4,4,3.89,3.89,0,0,1-2.85-1.2A3.8,3.8,0,0,1,22,26.05"/></g></g></svg>