<svg xmlns="http://www.w3.org/2000/svg" viewBox="0 0 28 34.8"><defs><style>.cls-1{fill:#fff;}</style></defs><title>Ресурс 72</title><g id="Слой_2" data-name="Слой 2"><g id="Layer_1" data-name="Layer 1"><path class="cls-1" d="M.55.6A2,2,0,0,1,2,0H26a1.92,1.92,0,0,1,1.4.6A1.92,1.92,0,0,1,28,2V20.85H28a13.33,13.33,0,0,1-4.1,9.85A13.33,13.33,0,0,1,14,34.8H14a13.49,13.49,0,0,1-9.9-4.1,13.4,13.4,0,0,1-4-9.85V2.05A2,2,0,0,1,.55.6M11.8,6.85A2.88,2.88,0,0,1,14,5.9a2.73,2.73,0,0,1,2.1.95,3.22,3.22,0,0,1,.9,2.3V16.6a3.22,3.22,0,0,1-.9,2.3,2.65,2.65,0,0,1-2.1,1,2.79,2.79,0,0,1-2.15-1A3.31,3.31,0,0,1,11,16.6V9.15a3.31,3.31,0,0,1,.85-2.3m-8.8,6H8V16.6A6.42,6.42,0,0,0,9.6,20.9a5.44,5.44,0,0,0,4.35,2,5.45,5.45,0,0,0,4.4-2l-.1.15A6.29,6.29,0,0,0,20,16.6V12.85H25V3H3v9.85"/></g></g></svg>