<svg xmlns="http://www.w3.org/2000/svg" viewBox="0 0 32 32"><defs><style>.cls-1{fill:#fff;}</style></defs><title>Ресурс 38</title><g id="Слой_2" data-name="Слой 2"><g id="Layer_1" data-name="Layer 1"><path class="cls-1" d="M17,6.05,16,6V26.05L17,26a9.58,9.58,0,0,0,6.1-2.9h0a9.66,9.66,0,0,0,2.9-7.1,9.78,9.78,0,0,0-2.9-7.1A9.89,9.89,0,0,0,17,6.05M4.7,4.7v0A15.48,15.48,0,0,1,16,0l1,.05A15.22,15.22,0,0,1,27.3,4.7,15.41,15.41,0,0,1,32,16a15.48,15.48,0,0,1-4.7,11.35A15.49,15.49,0,0,1,17,32H16A15.48,15.48,0,0,1,4.7,27.35,15.48,15.48,0,0,1,0,16,15.48,15.48,0,0,1,4.65,4.7h0"/></g></g></svg>