<svg xmlns="http://www.w3.org/2000/svg" viewBox="0 0 35 24"><defs><style>.cls-1{fill:#fff;}</style></defs><title>Ресурс 19</title><g id="Слой_2" data-name="Слой 2"><g id="Layer_1" data-name="Layer 1"><path class="cls-1" d="M19.5,5.45A5.13,5.13,0,0,1,21.1,1.6,5.18,5.18,0,0,1,24.9,0a5.24,5.24,0,0,1,3.85,1.6A5.24,5.24,0,0,1,30.3,5.45,5.11,5.11,0,0,1,28.75,9.2a10.21,10.21,0,0,1,3.3,2.25,9.79,9.79,0,0,1,3,7.2q0,2.25-3,3.8A15.26,15.26,0,0,1,24.9,24l-5.15-.7a5.15,5.15,0,0,0,2.45-4.65,11.9,11.9,0,0,0-3.2-8.3A9.38,9.38,0,0,1,21.05,9.2,5.11,5.11,0,0,1,19.5,5.45M14,9.2a10.21,10.21,0,0,1,3.3,2.25l.25.25a9.84,9.84,0,0,1,2.7,7q0,2.14-2.7,3.65l-.25.15A15.26,15.26,0,0,1,10.1,24,15.26,15.26,0,0,1,3,22.45C1,21.42,0,20.15,0,18.65a9.79,9.79,0,0,1,3-7.2A10.34,10.34,0,0,1,6.2,9.2,5.18,5.18,0,0,1,4.7,5.45,5.13,5.13,0,0,1,6.3,1.6,5.07,5.07,0,0,1,10.1,0,5.24,5.24,0,0,1,14,1.6,5.24,5.24,0,0,1,15.5,5.45,5.11,5.11,0,0,1,14,9.2"/></g></g></svg>